<?xml version="1.0" standalone="no"?>
<!DOCTYPE svg PUBLIC "-//W3C//DTD SVG 1.1//EN" "http://www.w3.org/Graphics/SVG/1.1/DTD/svg11.dtd" >
<svg xmlns="http://www.w3.org/2000/svg">
<metadata></metadata>
<defs>
<font id="obelixprocryregular" horiz-adv-x="1603" >
<font-face units-per-em="2048" ascent="1638" descent="-410" />
<missing-glyph horiz-adv-x="712" />
<glyph horiz-adv-x="0" />
<glyph horiz-adv-x="682" />
<glyph unicode=" "  horiz-adv-x="712" />
<glyph unicode="&#x09;" horiz-adv-x="712" />
<glyph unicode="&#xa0;" horiz-adv-x="712" />
<glyph unicode="!" horiz-adv-x="759" d="M25 356q9 57 47 101t66.5 74t71 47t137.5 5q60 -13 129 -49t99 -80t28.5 -93t-17.5 -103q19 -98 -15.5 -135.5t-82 -56.5t-109 -42.5t-127.5 -10.5q-54 13 -117 41t-61 83t-17 110t-32 109zM91 1764q-3 120 4 353q104 -3 141 -3q132 -6 142 -3q88 -6 148 -6h126 q-60 -271 -53 -378q-44 -284 -16 -360q50 -249 -51 -330q-113 -132 -37 -319q-135 -35 -356 -15q-142 290 -35 400t6 309q-44 169 -19 352z" />
<glyph unicode="&#x22;" horiz-adv-x="942" d="M32 2117l393 123q-57 -457 -9 -791l-350 -141zM492 1330l37 816l400 69q-98 -457 -81 -788z" />
<glyph unicode="#" horiz-adv-x="2180" d="M60 854l400 19v201q-135 -3 -287 -22l-85 375l369 26v415l510 76q-25 -233 -47 -476l293 16v384l501 76q-25 -221 -38 -441l397 22l3 -369q-66 -3 -207.5 -4.5t-204.5 -7.5q-13 -107 -7 -211l385 22l25 -369q-135 -6 -410 -13q6 -85 10 -160l12 -161l-463 -107v410 q-107 -3 -309 -16q0 -145 13 -287l-460 -107v359q-72 -3 -135 -9l-152 -10zM895 898l318 16l3 208q-110 -3 -315 -16q0 -69 -6 -208z" />
<glyph unicode="$" d="M16 126v9l22 167q13 0 22 136q13 16 28 161h10q22 0 132 -95l57 -19q44 -28 78 -28q0 -19 199 -35q72 0 72 22l-3 13l3 179v215q-25 22 -129 38q0 9 -56 28l-57 25q-3 16 -38 16q0 13 -50 25l-95 79q-69 57 -94 113q-57 72 -85 211v139q0 44 25 110q32 117 160 246 q69 72 221 158q142 57 157 56q25 0 60 35l-3 44v117q0 41 32 41h201l19 -13l-3 -44v-104l13 -13h101q262 -19 293 -38l100 -25q98 -32 98 -56v-7l-22 -50l-22 -82l-73 -211l-63 -164h-3q-28 0 -75 31l-76 26q-66 25 -227 34l-60 7l-3 -22v-356l13 -16h41l107 -22 q107 -22 208 -73q95 -32 205 -138q63 -91 63 -107q13 0 15 -60q16 0 26 -76v-123q-25 -135 -98 -246q0 -16 -101 -119q-63 -60 -123 -92q-85 -60 -179 -94q0 -9 -63 -29q0 -6 -76 -18q-6 -9 -63 -19v-123l-19 -22h-176q-25 0 -29 19v78l-12 10h-26q-208 19 -308 38 q-25 0 -79 28q-151 41 -192 85zM406 1487q0 -63 98 -129q22 0 60 -32q19 0 41 -12h13l3 283l9 35q-50 -22 -98 -25q-6 -9 -69 -32q-57 -50 -57 -88zM860 388h3q95 19 145 44q19 0 41 25q38 0 88 88v76q-57 79 -138 101q0 19 -73 25l-25 15h-19q-12 1 -12 -15z" />
<glyph unicode="%" horiz-adv-x="1789" d="M3 145v3q79 72 211 265q135 186 394 598l173 278q252 406 511 857l22 12l47 -38q0 -6 28 -6q32 -38 180 -104v-9q0 -9 -63 -104l-157 -281q-13 0 -26 -41q-16 -6 -28 -50l-189 -315q-243 -403 -551 -854q-186 -255 -328 -410q-41 9 -224 199zM3 1594v123q22 107 69 180 q19 44 149 164q104 76 236 97h151q151 -41 170 -72q69 -19 126 -164l10 -82q0 -211 -158 -372q-120 -107 -211 -119q0 -22 -167 -35h-9q-148 0 -224 66q-85 50 -123 142zM343 1701q0 -72 54 -97l16 -7h44q50 0 110 86l16 78v22q0 63 -73 85h-53q-88 -35 -88 -75 q-26 -1 -26 -92zM851 287v9h3l-3 60v38q22 161 38 176q32 142 173 300q151 123 242 122l45 4q208 0 308 -189q22 -19 51 -130v-179q-25 -135 -73 -246q-101 -205 -277 -277q-113 -35 -142 -35h-28q-145 0 -246 126q-47 60 -72 139q0 19 -19 82zM1159 429q6 -104 35 -104 q0 -22 35 -23h34q41 0 104 92l26 104v6q0 95 -89 110h-31q-57 -28 -85 -78q-20 -31 -29 -107z" />
<glyph unicode="&#x26;" horiz-adv-x="1871" d="M79 532v32q0 82 19 135q16 50 60 123q28 44 85 104q101 104 182 152v6l-41 88q-88 164 -94 252q-3 0 -6 35h-4l4 19v34q19 132 41 133q0 35 97 148q82 69 161 94q3 7 113 29h111l110 -22q186 -54 290 -186q66 -85 66 -139q3 0 13 -63q0 -38 -23 -157q-9 0 -22 -60 q-6 0 -41 -54q-117 -120 -154 -139q-35 -32 -50 -31q0 -13 -26 -19v-9l196 -164q57 -44 72 -44q72 98 82 141q32 38 47 108q13 0 19 56l3 3h10q54 -41 76 -44q0 -13 113 -56l101 -38l6 -19l-38 -110q-6 0 -12 -35q-9 -6 -26 -41l-97 -161q0 -13 72 -41q69 -47 170 -94 q38 -13 60 -35v-3q-38 -79 -116 -186q-63 -98 -120 -157l-13 -4l-126 63l-195 120l-158 -107l-85 -38l-41 -16l-69 -22l-94 -25l-158 -9q-164 9 -220 34q-117 35 -155 73q-72 32 -151 179q-25 54 -44 167zM488 577q0 -35 51 -79q63 -38 113 -41h3q158 16 180 41q19 0 82 41 v12q-35 0 -284 262h-12q-95 -85 -123 -139q-10 0 -10 -22v-75zM636 1487q0 -101 54 -157q25 -32 50 -41q76 0 161 119l16 35v35q-19 16 -19 44q-54 57 -132 57l-57 -10h-13q-60 -41 -60 -82z" />
<glyph unicode="'" horiz-adv-x="860" d="M-76 1859l278 491l324 -126l-378 -478z" />
<glyph unicode="(" horiz-adv-x="853" d="M419 2420l221 -85q-362 -1216 -7 -2568l-204 -117q-882 1418 -10 2770z" />
<glyph unicode=")" horiz-adv-x="866" d="M214 2335l221 85q873 -1352 -10 -2770l-204 117q356 1352 -7 2568z" />
<glyph unicode="*" horiz-adv-x="1222" d="M25 1386l300 186q-113 72 -243 155l189 271l208 -152l38 262l293 3l-25 -129q-9 -72 -19 -132l274 176l104 -243q-148 -95 -312 -189l239 -176l-220 -236q-25 19 -164 122q-13 -113 -19 -226l-303 -51l41 287q-38 -25 -115 -75.5t-111 -72.5z" />
<glyph unicode="+" horiz-adv-x="1443" d="M88 1033l413 45l-50 384l507 35q-50 -287 -54 -391l366 53l72 -419q-192 -19 -381 -37q3 -129 38 -334l-467 -67v350q-139 -13 -324 -44z" />
<glyph unicode="," horiz-adv-x="645" d="M-113 -236l211 693l535 -25q-217 -369 -308 -668h-438z" />
<glyph unicode="-" horiz-adv-x="916" d="M88 1213l738 9l-10 -469q-400 22 -699 -16z" />
<glyph unicode="." horiz-adv-x="721" d="M22 195.5q-13 53.5 3 116.5q9 57 47 101t85.5 74t109 44t117.5 8q60 -13 110.5 -49t80.5 -80.5t42.5 -101t-3.5 -110.5q-13 -57 -45.5 -107t-83 -80t-109 -43t-124.5 0q-54 13 -105.5 43t-81.5 80.5t-43 104z" />
<glyph unicode="/" horiz-adv-x="1890" d="M-69 0l1484 2083l551 -130q-929 -1131 -1503 -2029z" />
<glyph unicode="0" horiz-adv-x="1723" d="M-32 1052q44 400 281 731q299 400 734 400q369 0 599 -330q113 -170 164 -375q44 -195 15 -426q-44 -388 -290 -715q-293 -400 -724 -400q-378 0 -605 325q-110 161 -151 365q-47 195 -23 425zM476 958q-9 -104 9 -183q22 -120 114 -189q91 -82 236 -82q198 0 321 164 q95 132 114 315q16 208 -63 413q-91 201 -252 201q-195 0 -341 -252q-117 -202 -138 -387z" />
<glyph unicode="1" horiz-adv-x="1206" d="M63 1916l1078 148q-123 -1093 -41 -1941l-558 -126l-10 1443l-444 -54z" />
<glyph unicode="2" horiz-adv-x="1679" d="M35 82q-60 280 34 479q113 239 637 485q293 135 321 265q9 72 0 123q-13 57 -63 101t-120 44q-154 0 -119 -196l-624 -97q32 621 444 781q110 41 243 41q258 0 498 -145q312 -186 365 -454q54 -246 -161 -479q-161 -176 -516 -318q-274 -104 -331 -208l898 47l41 -519 l-1513 -67q-22 63 -34 117z" />
<glyph unicode="3" horiz-adv-x="1638" d="M-35 492l630 75q-9 -28 -3 -63q9 -44 63 -44q25 0 57 6q145 35 205 120q28 32 19 63q-32 129 -363 129q-186 0 -491 -34l16 466q287 170 538 324q-290 -22 -573 -47l-72 529l1389 64q0 -208 16 -624q-221 -3 -526 -246q674 -79 746 -413q60 -287 -304 -570.5t-751 -258.5 q-460 32 -596 524z" />
<glyph unicode="4" horiz-adv-x="1594" d="M3 649l173 1349l640 78q-161 -602 -243 -1115l290 13l-3 825l574 82q-47 -561 -60 -882l160 9l51 -529h-110q-60 -3 -95 -3q0 -186 19 -366l-529 -113l-7 463q-328 -19 -671 -47z" />
<glyph unicode="5" horiz-adv-x="1578" d="M0 740l627 -41q-13 -60 0 -97q9 -54 60 -54q16 0 38 3q129 35 192 139q32 60 19 104q-16 57 -70 104q-76 76 -349 76q-120 0 -278 -13l-207 -41q-3 416 28 1096l1270 67l50 -514q-378 -19 -785 -35q-3 -44 -9 -126q816 -13 926 -393q63 -170 -44 -375q-72 -170 -230 -315 q-337 -321 -683 -322q-230 0 -388 195q-95 104 -132 294q-25 113 -35 248z" />
<glyph unicode="6" horiz-adv-x="1673" d="M9 1059q19 372 240 677q277 372 693 372q356 0 602 -312l-325 -413l-88 82q-63 44 -107 44q-214 0 -375 -343q202 57 391 56q167 0 324 -47q255 -79 303 -283q9 -57 6 -120q-28 -277 -268 -510q-255 -255 -589 -256q-362 0 -599 312q-135 173 -182 397q-35 164 -26 344z M595 668q76 -211 259 -211q66 -1 157 31q173 63 155 155q-9 41 -53.5 82t-97.5 41q16 0 -227 -51q-104 -19 -193 -47z" />
<glyph unicode="7" horiz-adv-x="1282" d="M-38 1462l25 529l1333 126l-567 -2073l-561 -47l385 1503z" />
<glyph unicode="8" horiz-adv-x="1833" d="M22 438q-54 243 123 466q110 161 318 265q-239 107 -277 293q-9 44 -10 104q13 230 268 400q239 151 555 170q321 13 548 -126q176 -110 211 -264q9 -44 6 -95q-9 -246 -305 -422q340 -142 400 -419q9 -57 6 -126q-9 -284 -299 -498q-284 -198 -662 -221 q-388 -25 -652 158q-192 126 -230 315zM605 618q16 -88 123 -142q98 -41 214 -35q154 9 268 98q117 91 94 211q-22 85 -124.5 130.5t-215.5 39.5q-151 -13 -268 -91q-120 -88 -91 -211zM715 1427q32 -123 230 -113q98 6 178.5 61t61.5 131q-13 63 -85.5 94.5t-138.5 22.5 q-104 -3 -183 -61.5t-63 -134.5z" />
<glyph unicode="9" horiz-adv-x="1805" d="M-41 1389q9 290 299 498q287 202 656 224q384 25 655 -151q195 -135 243 -328q41 -198 -82 -391q-290 -674 -444 -1219l-561 76l267 693q-34 -10 -135 -13q-397 -22 -652 155q-195 132 -237 321q-13 63 -9 135zM586 1286q19 -72 101 -108q85 -37 176 -28q129 6 224 74 t72 169q-19 72 -100.5 106.5t-179.5 31.5q-120 -9 -211 -72q-101 -72 -82 -173z" />
<glyph unicode=":" horiz-adv-x="740" d="M59.5 582.5q-12.5 53.5 3.5 113.5q9 60 47 104t85.5 72.5t108.5 42.5t118 5q63 -16 112 -49t79 -75.5t42.5 -99t-3.5 -113.5q-13 -54 -46 -104t-83 -80t-108.5 -43t-124.5 0q-54 13 -102.5 43t-82 80t-46 103.5zM59.5 1307.5q-12.5 56.5 3.5 116.5q9 54 47 101t85.5 77 t108.5 41t118 5q63 -13 112 -46t79 -80t42.5 -101t-3.5 -113q-13 -57 -46 -104.5t-83 -79t-108.5 -45.5t-124.5 -1q-54 16 -102.5 47t-82 78.5t-46 104z" />
<glyph unicode=";" horiz-adv-x="778" d="M-47 -145l201 882l520 -38q-211 -463 -312 -841zM118 1307.5q-17 56.5 5 116.5q13 54 49 101t85 77t113.5 41t124.5 5q72 -13 121 -46t80.5 -80t47 -101t0.5 -113q-19 -57 -55.5 -104.5t-85 -79t-113.5 -45.5t-128 -1q-66 16 -115 47t-80.5 78.5t-48.5 104z" />
<glyph unicode="=" horiz-adv-x="1323" d="M41 1371l1137 113l67 -422q-618 -38 -1078 -114zM79 766l1134 107l69 -422q-545 -28 -1074 -114z" />
<glyph unicode="?" horiz-adv-x="1228" d="M39 195.5q-11 53.5 2 116.5q9 57 47 101t85.5 74t110.5 44t116 8q63 -13 113.5 -49t79 -80.5t41 -101t-0.5 -110.5q-16 -57 -49 -107t-81.5 -80t-108.5 -43t-123 0q-57 13 -105.5 43t-82 80.5t-44.5 104zM120 1711l60 466q416 -32 677 -138q356 -148 331 -435 q-38 -369 -400 -596q-91 -53 -233 -110l-26 -208l-387 22l-16 479q501 126 535.5 337t-541.5 183z" />
<glyph unicode="@" horiz-adv-x="2495" d="M-6 737q0 551 214 949q189 343 517 523q299 161 649 160q425 0 756 -226q410 -271 410 -713q0 -325 -246 -809q-205 -400 -693 -656l-259 246l38 258q-195 -135 -403 -135q-145 0 -240 91q-123 110 -123 287q0 302 246 570q193 214 429 268q113 28 220 0l3 22q60 6 104 7 q28 0 86.5 -6.5t90.5 -6.5q54 0 110 13q-57 -299 -104 -561l-107 -555q312 290 388 539q41 135 40 246q0 302 -280 475q-227 148 -504 149q-454 0 -700 -322q-186 -246 -185 -630q0 -277 122 -646l-491 -334q-88 441 -88 797zM989 722q0 -113 98 -114q91 0 167 82 q57 63 69 139q13 72 -32.5 113t-105.5 28q-72 -16 -134 -89.5t-62 -158.5z" />
<glyph unicode="A" horiz-adv-x="1663" d="M60 542q120 159 120 456v29q-3 38 88 482q44 230 94 482q82 13 378 54q129 16 385 53q44 -72 72 -447q22 -142 111 -482q183 -375 226 -517q-12 -54 -12 -108q0 -224 211 -440q-117 -32 -265 -63l-312 -63q1 9 1 18q0 76 -95 155q-126 91 -161 177l-362 -44 q25 -91 129 -177q1 -7 1 -15q0 -76 -83 -164q-158 44 -246 66q-221 50 -274 63q-88 138 -88 261q0 119 82 224zM674 1065q42 -219 42 -345q0 -23 -1 -43l265 4q-50 164 -177 387l-72 388q-22 -132 -57 -391z" />
<glyph unicode="B" horiz-adv-x="1707" d="M60 1991q123 54 265 82q148 32 280 32h30q140 0 260 -25q132 -28 239 -95q107 -57 170 -148q60 -88 73 -199q1 -14 1 -29q0 -96 -52 -197q-63 -126 -198 -240q135 -19 271 -107q158 -104 243 -205q69 -72 78 -129q1 -8 1 -17q0 -53 -48 -115q8 11 8 13q0 8 -153 -149 q-50 -50 -98 -129q-119 -208 -119 -228q0 -2 1 -1q2 0 8 5q-69 -69 -312 -107q-180 -28 -378 -28q-151 0 -362 22q-160 266 -160 432q0 64 24 113q25 52 25 161q0 149 -47 406q0 -2 1 -2t0 10q0 67 -26 566q-13 255 -25 308zM510 1670q0 -60 16 -183l16 -186q117 22 176 48 q88 41 130 116q17 36 17 71q0 43 -27 83q-44 66 -113 76l-104 -3q-47 -3 -111 -22zM558 466h129q66 3 135 19q82 19 152 54q82 38 138 101q24 27 24 56.5t-24 62.5q-44 60 -129 85q-75 26 -151 26q-88 0 -170 -29q19 -71 19 -133q0 -29 -4 -56z" />
<glyph unicode="C" horiz-adv-x="1433" d="M0 1081q-2 15 -2 33q0 88 37 250q32 161 78 265q54 120 130 227q66 91 176 173q98 72 208 104q73 20 149 20q45 0 90 -7q129 -16 265 -85q139 -72 281 -211q-35 -44 -73 -95q-60 -82 -72 -98q-32 -35 -79 -97q-38 -50 -73 -98q-148 95 -264 98q-107 0 -186 -73 q-76 -72 -110 -186q-36 -108 -36 -189q0 -26 4 -50q6 -57 126 -240q82 -126 113 -182q35 -63 121 -63h15q126 3 321 107l26 -183q9 -85 110 -180q4 -46 4 -84q0 -113 -36 -146q-82 -76 -255 -107q-60 -10 -115 -10q-62 0 -118 13q-60 16 -208 98q-35 19 -170 79 q-120 54 -192 94q-167 101 -167 237q34 184 34 251q0 20 -3 29q-95 202 -129 306z" />
<glyph unicode="D" horiz-adv-x="1660" d="M28 353q100 270 100 457q0 113 -37 195q-15 204 -15 602v50v341q173 35 330 47q103 9 197 9q76 0 147 -6q151 -16 271 -54q151 -47 249 -126q148 -117 217 -217q98 -142 129 -280q6 -35 16 -104v-108q-5 -43 -5 -88q0 -66 11 -135t11 -118q0 -61 -17 -93 q-28 -44 -290 -221q-88 -60 -233 -183l-110 -97q-13 -13 -57 -82q-91 -82 -321 -126q-202 -38 -426 -41q28 38 35 66q1 9 1 17q0 30 -17 49q-104 76 -154 123q-32 54 -32 123zM636 1040q60 -272 59 -387q0 -43 -8 -64q293 95 359 240q28 64 28 186q0 80 -12 185 q-22 154 -136 227q-95 61 -236 61q-18 0 -38 -1q-17 -327 -17 -416q0 -24 1 -31z" />
<glyph unicode="E" horiz-adv-x="1402" d="M57 476q74 201 74 362q0 79 -18 148q-31 110 -31 490v24l-10 510q243 28 290 35q243 28 297 35q189 25 286 34q183 22 300 35q0 -44 15 -133q0 -44 16 -132q23 -133 22 -133v1q0 -44 16 -133q-126 -9 -167 -12q-113 -9 -167 -13q-28 -3 -154 -19q-95 -9 -152 -19l-9 -72 l-3 -35l-13 -173q85 13 129 19q28 6 120 19q22 3 60 9l60 13q50 19 104 19h15q0 -35 19 -101l16 -202q9 -54 47 -104q-32 -3 -85 -12q-60 -9 -75 -13q-168 -27 -172 -27q-2 0 42 8q-98 -19 -103 -19q-47 -6 -104 -19q-1 -10 -1 -18q0 -30 16 -45l25 -72q0 -25 -25 -69 l-31 -63q47 6 176 22q113 16 170 22q82 13 174 25q101 13 176 22q-9 -22 -31 -66q-19 -44 -32 -66q-54 -72 -63 -133q0 -44 32 -132q47 -66 119 -132q-101 -6 -239 -26q-95 -13 -259 -40q-41 -6 -141 -26q-104 -22 -161 -31q-293 -54 -403 -76q-135 265 -167 514z" />
<glyph unicode="F" horiz-adv-x="1386" d="M28 444q118 252 118 403q0 62 -20 108q-66 192 -66 507v510q107 13 595 67q406 47 599 69q9 -88 41 -265q9 -88 41 -261q-183 -9 -353 -29q-183 -16 -328 -37l-9 -306q135 22 312 53q117 22 305 54q16 -132 32 -198q9 -82 82 -199q-132 -22 -321 -54q-161 -25 -385 -59 q10 -35 10 -78q0 -118 -76 -294q-3 -14 -3 -29q0 -131 220 -343q-198 -41 -305 -66l41 8q0 1 -400 -71q7 21 7 47q0 82 -67 211q-74 138 -74 218q0 19 4 34z" />
<glyph unicode="G" horiz-adv-x="1944" d="M0 1046q0 63 25 189q6 44 63 183q44 110 79 173q38 63 113 167q66 88 161 170q82 69 177 123q98 50 182 73q104 25 218 25q95 0 186 -22q85 -19 160 -63q72 -41 142 -104q63 -50 129 -145q-32 -28 -79 -85q-66 -57 -88 -82q-35 -28 -82 -85q-32 -28 -78 -85 q-85 98 -177 123q-42 11 -84 11q-54 0 -108 -18q-88 -28 -177 -110q-69 -57 -144 -183q-98 -154 -98 -255q44 -82 88 -290q4 -20 4 -52.5t-4 -76.5l-6 -104q25 -44 88 -66q58 -19 139 -19h22q63 3 151 31q66 19 167 73q95 47 176 107q82 57 82 136q-143 -26 -145 -26l16 3 l-63 -12q-41 -9 -66 -16q-107 -19 -136 -25q-85 -19 -119 -25l9 104q-19 35 -34 104q-16 38 -48 107q-18 41 -18 76q0 15 3 28q161 25 248 41q139 22 249 38q236 41 240 40q183 28 249 38q9 -32 15 -94l4 -51q3 -35 6 -50q0 -16 31 -110q32 -101 32 -117q6 -25 6 -50.5 t-6 -50.5q-9 -44 -73 -97q-19 -16 -119 -95q-60 -44 -98 -88q-126 -167 -142 -224q-44 -132 -44 -153q0 -4 2 -4h1q-85 -54 -264 -95q-141 -31 -288 -31h-9q-94 0 -160 22q-60 16 -129 56q-98 60 -193 101q-167 72 -249 139q-32 28 -72 85q-25 38 -38 88l16 91q13 47 47 98 l25 95q-3 16 -34 104q-16 54 -47 104q-13 25 -32 113z" />
<glyph unicode="H" horiz-adv-x="1625" d="M50 457q89 266 89 409q0 60 -16 98q-32 167 -32 504v504q227 35 322 48q202 32 318 47q-20 -170 -20 -290q0 -144 29 -214q-6 -236 -78 -451q91 16 141 22q63 13 145 25v813q323 48 323 49l-11 -1q214 32 322 47q-35 -290 -48 -564q-10 -222 -10 -351.5t10 -165.5 q28 -107 28 -205q0 -142 -59 -267q-20 -41 -20 -85q0 -149 218 -344q-167 -41 -296 -66q-95 -19 -321 -63q1 4 1 10q0 79 -184 377q3 44 151 391q-57 -3 -129 -22q-132 -25 -167 -31q-152 -246 -152 -315q0 -6 1 -10q9 -60 239 -274l-289 -63q-104 -19 -328 -66 q0 76 -107 258q-76 125 -76 204q0 23 6 42z" />
<glyph unicode="I" horiz-adv-x="800" d="M107 482q102 142 102 294q0 101 -45 207q-25 167 -25 501q-6 167 -7 504q110 16 152 22q139 22 151 25l154 22q35 6 136 26q-49 -343 -49 -505q0 -26 1 -47q-23 -232 -23 -365q0 -104 14 -148q29 -165 28 -281q0 -127 -34 -195q-36 -65 -36 -131q0 -150 187 -304 q-72 -16 -120 -31q-91 -19 -138 -32q-25 -6 -76 -16q-54 -9 -76 -15q-88 -19 -151 -32z" />
<glyph unicode="J" horiz-adv-x="1257" d="M-25 343q50 129 201 249q60 -6 104 -12h-2q0 1 97 -13q66 -9 104 -16l98 -12q84 115 84 239q0 62 -21 126q-72 154 -73 363v731q117 16 155 22q104 16 151 22q104 19 151 25q88 13 154 22q-16 -167 -41 -561q-17 -257 -17 -392q0 -91 8 -125q38 -150 38 -265 q0 -124 -44 -207q-38 -71 -38 -140q0 -147 173 -286q-126 -32 -249 -59q-192 -54 -286 -63l-89 12q-9 3 -217 38l-114 16l-110 15l-66 10l-63 13q-93 96 -93 201q0 23 5 47z" />
<glyph unicode="K" d="M63 1065v1011q198 32 296 48q192 32 296 47q-9 -142 -22 -227l-9 -173q192 158 255 214q63 50 227 205q69 -41 246 -120q167 -79 249 -117q-104 -82 -297 -248q-154 -123 -286 -249q217 -394 384 -583q-12 -27 -12 -64q0 -162 226 -519q-72 -47 -167 -139 q-60 -69 -217 -135q-375 323 -375 529v10q-9 167 -274 538q86 -325 86 -425q0 -21 -4 -32q-63 -167 -63 -286q0 -102 47 -167q-60 -32 -192 -63q-95 -32 -218 -66q-162 197 -162 400q0 53 11 107q42 82 42 190q0 137 -67 314z" />
<glyph unicode="L" horiz-adv-x="1339" d="M57 482q80 210 80 358q0 81 -24 143q-31 162 -31 481v20v504q57 9 287 47q117 19 305 48q-32 -265 -41 -388q-19 -236 -22 -372q6 -151 29 -353q34 -211 35 -318q0 -11 -1 -22q57 6 164 19t164 19q262 25 331 35q-98 -195 -129 -265q13 -142 110 -262q-176 -13 -448 -66 q-340 -66 -664 -129q-98 397 -145 501z" />
<glyph unicode="M" horiz-adv-x="2218" d="M25 498q161 224 161 452v24q0 -13 69 501q13 76 41 258q28 170 41 268q183 38 271 56q170 35 274 54q22 -170 88 -514q47 -340 79 -513l-3 -21l76 516q47 306 72 491l259 22q66 6 245 19q6 -104 73 -488q50 -337 104 -504l176 -520q-7 -37 -7 -73q0 -236 281 -460 q-132 -28 -290 -57q-302 -54 -337 -56q-9 85 -123 261q-113 173 -122 262q44 96 44 198q0 155 -101 322q20 -83 20 -161q0 -181 -108 -331q-14 -34 -14 -83q0 -143 118 -412q-180 -16 -249 -18q-158 -13 -240 -19l-217 545q38 77 38 176q0 157 -95 369q17 -97 16 -184 q0 -223 -110 -377q-16 -47 -16 -110q0 -74 22 -170q35 -148 35 -231q0 -28 -4 -50q-180 41 -255 57q-38 9 -129 28q-85 19 -129 29q-98 177 -98 301q0 84 44 143z" />
<glyph unicode="N" horiz-adv-x="1669" d="M82 416v18q0 337 110 518q-54 183 -66 535v533q28 6 280 50q164 28 275 47q0 -47 15 -107q3 -79 32 -145q69 -299 79 -362q28 -132 82 -318q22 -79 75 -152q0 3 104 -116q-76 183 -76 551v555q50 9 284 47q211 35 274 44q-35 -284 -44 -551q-9 -347 -9 -514 q23 -149 23 -261q0 -129 -30 -211q-35 -68 -35 -135q0 -152 177 -303q-183 -9 -239 -63q-47 -9 -139 -32q-95 -19 -142 -31v28q-6 28 -38 72q-258 173 -296 212q-101 120 -110 211l-9 82l15 47q-104 -146 -104 -310v-18q104 -233 164 -321q-158 -38 -312 -66 q-57 -13 -160 -35q-113 -22 -158 -32q-26 104 -26 339q0 88 4 194z" />
<glyph unicode="O" horiz-adv-x="1726" d="M3 1037q-2 23 -2 48q0 134 59 317q50 167 157 334q132 202 290 293q167 98 369 98q180 0 328 -82q126 -66 258 -240q44 -60 104 -170q47 -88 72 -186q25 -107 32 -198q13 -192 16 -211q46 -192 46 -288q0 -55 -15 -78q-164 -243 -350 -441q-46 -109 -46 -152 q0 -22 12 -27q-154 -98 -410 -98q-158 0 -296 79q-474 252 -474 253l27 -14q-91 50 -133 151v8q0 91 66 188q7 28 7 60q0 63 -29 138zM548 1131q-8 -41 -8 -77q0 -62 24 -109q0 -13 31 -91q56 -136 59 -136q2 0 -18 54l38 -101q11 -72 10 -79v-1v1q13 -38 47 -56 q38 -16 98 -16q85 0 167 38q142 63 186 113q39 45 39 110q0 14 -2 29q-3 50 -37 164q-9 28 -41 201q-16 85 -57 196q-35 98 -95 145q-60 50 -129 50q-69 -3 -135 -60q-69 -63 -120 -183q-35 -76 -57 -192z" />
<glyph unicode="P" horiz-adv-x="1562" d="M50 438q92 413 92 516q0 17 -3 26q-13 123 -26 646q-6 302 -41 403q217 57 401 82q186 27 340 27q44 0 85 -2q145 -9 258 -47q120 -41 208 -123q82 -76 129 -189t48 -274q0 -142 -25 -230q-32 -117 -89 -208q-54 -120 -72 -148q-38 -63 -120 -129q-88 -66 -224 -111 q-151 -44 -321 -69q-113 -140 -113 -230q0 -25 9 -47q25 -57 123 -161q95 -98 110 -151l27 4q0 1 -323 -36q-230 -22 -315 -28q4 12 4 27q0 68 -83 200q-83 135 -83 218q0 18 4 34zM602 1645q0 -176 9 -265l7 -265q82 0 160 29q88 28 151 88q47 41 73 88q28 50 41 123 q3 18 3 35q0 52 -28 104q-28 57 -95 82q-48 20 -106 20q-14 0 -29 -1q-76 -3 -186 -38z" />
<glyph unicode="Q" horiz-adv-x="1858" d="M16 1015q0 154 82 371q66 183 182 341q158 198 338 299q180 98 400 98q176 0 321 -79q151 -85 258 -246q16 -63 52.5 -140t74 -154.5t97.5 -549.5q6 -35 6 -69q0 -218 -245 -407q0 -82 47 -148q66 -95 280 -218q-54 -57 -201 -122l-359 -126l-49 -70l121 173q5 21 5 41 q0 33 -14 63q-132 -79 -297 -119q-164 -38 -289 -38q-154 0 -256 82q-16 13 -409 239q-98 85 -129 174q-7 22 -7 47q0 63 47 145q36 67 36 130q0 33 -10 65q1 8 1 16q0 84 -83 202zM539 1100q-4 -11 -4 -30q0 -55 35 -175l63 -218l-6 -163q32 -63 135 -76q18 -3 39 -3 q83 0 195 44q3 38 19 110q15 75 18 110q-38 91 -151 221q25 19 88 50q-6 -3 98 51q35 25 95 50q28 16 113 54q-22 98 -31 132q-35 101 -57 142q-35 66 -88 113q-54 47 -120 48q-104 0 -192 -70q-82 -63 -145 -173q-76 -126 -104 -217z" />
<glyph unicode="R" horiz-adv-x="1613" d="M50 422q73 330 73 507q0 67 -10 111q-15 65 -15 515v58q0 224 -16 372q255 69 488 104q224 35 400 35q239 0 379 -95q135 -91 182 -283q1 -27 1 -52q0 -200 -89 -352q-101 -176 -318 -327q170 -479 457 -656q-113 -107 -123 -173q-16 -135 -199 -240q1 -1 0 -1 q-13 0 -375 373q-88 60 -170 435q-172 -309 -172 -395q-1 -30 19 -34q78 -16 210 -277q-91 -22 -280 -63q-57 -13 -174 -34q-110 -22 -173 -32q20 27 20 68q0 64 -48 162q-71 148 -71 236q0 20 4 38zM602 1213q54 22 113 54q60 35 104 69q72 60 104 98q58 77 58 118 q0 6 -1 11q-13 38 -41 56q-28 19 -79 23l-123 -7q-60 -9 -110 -22q-6 -38 -9 -101q-6 -66 -7 -97z" />
<glyph unicode="S" horiz-adv-x="1717" d="M28 929q-16 74 -16 141q0 110 42 203q76 164 271 391q189 208 378 321q180 110 353 120q24 3 46 3q129 0 224 -92q104 -95 155 -308q7 -35 16 -104q6 -79 15 -117l-119 -41l-139 -47q-76 -25 -120 -41q-41 -9 -129 -38q-9 66 -47 101q-35 35 -79 35q-69 0 -129 -32 q-44 -22 -114 -91q-35 -41 -47 -85q-5 -17 -5 -33q0 -28 15 -52q9 -25 47 -41l183 -10q22 3 97 16q72 13 136 19l129 6q151 0 249 -41q82 -35 161 -123q25 -47 47 -56q6 -9 25 -26l22 -28q36 -81 36 -148q0 -21 -4 -41q-19 -41 -224 -205q-173 -183 -199 -255 q-60 -161 -154 -208q-91 -47 -233 -76q-129 -25 -240 -25q-79 0 -151 22q-107 32 -161 63q1 9 1 19q0 78 -64 192q-15 27 -15 62q0 90 101 231q79 -41 107 -47q57 -19 119 -19l63 7q22 0 63 9q88 19 114 28q72 19 129 38q82 35 126 63q54 28 66 63q2 10 2 19q0 32 -27 38 q-35 16 -104 16l-129 -7q-28 -3 -167 -25q-88 -19 -177 -28l-233 3q-41 9 -78 31q-76 38 -130 95q-60 63 -104 135z" />
<glyph unicode="T" horiz-adv-x="1537" d="M-16 1456l25 271q0 91 16 271q428 41 712 69q429 41 722 69q9 -50 47 -274q16 -91 50 -274q-139 -6 -280 -13q-148 -9 -265 -15q-17 -146 -17 -301q0 -49 2 -100q0 -72 53 -192q57 -135 66 -192q1 -8 1 -17q0 -63 -57 -163q-69 -126 -73 -189q0 3 2 3q22 0 272 -352 q-57 -9 -167 -32q-107 -25 -164 -34q-258 -47 -368 -67q3 6 3 17q0 74 -139 380q98 82 145 404q1 10 1 22q0 68 -45 176q-57 142 -60 199v387q-76 -6 -227 -25q-164 -22 -255 -28z" />
<glyph unicode="U" horiz-adv-x="1707" d="M3 386q0 131 110 380q-41 158 -41 349q0 143 23 303q79 520 97 649q170 -12 296 -25q142 -9 306 -22q-9 -44 -25 -126q-16 -85 -22 -126q-28 -158 -51 -252q-44 -239 -47 -249q-31 -162 -31 -247v-5l41 -158q10 -42 10 -82q0 -56 -20 -107l-63 -164q6 -66 136 -66 q57 0 135 25q82 25 154 73q79 50 136 107q42 42 42 98q0 17 -4 34q-142 302 -167 665q-57 473 -73 668q192 -13 296 -19q107 -6 306 -16q9 -120 25 -356q9 -145 22 -356q22 -302 41 -356q96 -252 97 -339q0 -10 -2 -17q-28 -76 -101 -180q-69 -95 -82 -138q-19 -95 -57 -202 q-44 -72 -255 -120q-167 -38 -435 -63q-79 -8 -144 -8q-140 0 -215 37q-142 88 -280 173q-158 107 -158 238z" />
<glyph unicode="V" horiz-adv-x="1493" d="M-19 2001q208 41 312 60q79 16 306 59q24 -230 56 -567q25 -290 32 -362q13 -63 113 -476q-13 325 -25 451q-3 10 -3 29q0 78 50 314q35 265 48 542q85 -6 330 -28q120 -9 328 -25q-91 -287 -135 -460q-110 -435 -114 -479q-9 -372 -94 -495q-78 -108 -78 -224 q0 -137 109 -286q-258 -35 -394 -51q-9 0 -409 -47q1 7 1 16q0 69 -96 195q-113 151 -113 233q31 243 31 368q0 77 -12 108q-76 236 -129 548q-25 132 -114 577z" />
<glyph unicode="W" horiz-adv-x="2133" d="M-41 1919q107 22 280 57q9 3 290 56q54 -180 95 -488q25 -161 88 -488q32 350 57 519q32 350 57 523q158 13 239 19q41 3 120 10l119 9q19 -192 67 -573q47 -381 88 -574q6 189 72 564q22 183 88 561q101 -22 281 -60q85 -19 271 -56q-89 -269 -136 -445 q-110 -419 -113 -472q-19 -432 -63 -504q-49 -109 -49 -219q0 -154 96 -308q-69 -16 -302 -59q-63 -9 -177 -29q-120 -22 -176 -31q-54 126 -211 466q88 186 88 371q0 47 -6 95q-9 -142 -193 -444q0 -72 60 -224q52 -131 52 -205q0 -8 -1 -15q-101 -9 -281 -19 q-164 -9 -271 -16v8q0 79 -110 232q-85 129 -113 245q31 175 31 313q0 99 -16 179q-113 205 -185 498q-19 82 -67 252q-50 167 -69 252z" />
<glyph unicode="X" horiz-adv-x="1578" d="M-13 1922q85 47 259 139q154 91 249 141q16 -47 63 -138l72 -139q19 -50 47 -139q9 -25 32 -72q25 -47 31 -69q16 38 67 123q32 85 56 126q16 44 54 122q41 82 57 123q211 -16 321 -22q208 -16 312 -22q-211 -378 -287 -513q-101 -161 -296 -511q296 -325 302 -444 q16 -252 208 -391q-25 -85 -78 -151q-101 -63 -297 -151q2 12 2 24q0 140 -235 285q-193 142 -193 289q0 9 1 19q-162 -133 -162 -273q0 -10 1 -20q24 -57 24 -110q0 -100 -87 -183q-98 44 -208 67l-244 66h2q-26 80 -26 152q0 172 146 305q233 211 274 501 q-164 292 -233 434q-158 284 -234 432z" />
<glyph unicode="Y" horiz-adv-x="1572" d="M-38 1856q211 91 322 135q205 88 321 136q9 -66 22 -158q9 -154 32 -189q9 -35 28 -101q22 -69 28 -104q32 -139 57 -208q79 243 129 363q79 239 126 362q167 -25 299 -41q126 -16 303 -41q-79 -158 -255 -551q-148 -331 -161 -526q-126 -126 -296 -501q-4 -26 -4 -57 q0 -75 23 -177q21 -76 21 -147q0 -47 -9 -92q-236 13 -262 13h-3h1q-161 9 -265 15q13 27 13 65q0 97 -85 266q25 123 239 334q-25 113 -176 300q-95 120 -167 302q-72 117 -145 302q-95 195 -136 300z" />
<glyph unicode="Z" horiz-adv-x="1786" d="M-22 447q63 60 306 202q145 104 239 325q57 88 233 264q158 176 249 268q-161 -13 -315 -28q-158 -19 -343 -41q-32 123 -48 271q-32 183 -41 271q668 41 722 47q520 32 731 44l16 -536q-54 -63 -186 -189q-79 -82 -287 -327q-3 -3 -72 -126q-50 -91 -82 -133 q-79 -91 -167 -148q-129 -85 -161 -116q135 9 425 22q66 3 211 12l221 10q-36 -80 -36 -155q0 -56 20 -110q195 -243 202 -268q-447 -9 -867 -31q-394 -22 -753 -57q29 47 29 93q0 90 -117 172q-129 129 -129 264z" />
<glyph unicode="[" horiz-adv-x="872" d="M77.5 1312.5q-1.5 247.5 1.5 502.5q3 252 12 495l-3 40q135 47 384.5 104t323.5 68t149 18l73 -423q-151 -16 -306 -41q-66 -13 -135 -28q-3 -284 -4 -564q3 -227 5 -474.5t9.5 -509t14.5 -522.5q3 -38 0 -73q13 0 25 4q76 13 148 22q154 25 296 60l111 -420 q-665 -132 -1043 -129q-22 451 -41 949q-6 205 -12.5 439.5t-8 482z" />
<glyph unicode="\" horiz-adv-x="1518" d="M-22 2215l293 340q192 -410 403 -832q98 -176 199 -374.5t209.5 -405t222 -414.5t220.5 -403l-356 -202q-202 353 -410 744q-91 161 -190.5 350t-198.5 387.5t-200 404.5t-192 405z" />
<glyph unicode="]" horiz-adv-x="532" d="M-148 -47q151 6 312 25q63 13 132 25q25 262 35 539q13 214 22 450.5t17 483.5t11 506v85q-3 0 -3 3h-151q-161 0 -306 -6l-19 406q69 6 149.5 8t153 0.5t146.5 -5t134 -6.5q154 -13 300 -31q66 -577 72 -864q-3 -198 -11 -422t-17.5 -460t-21.5 -479q-16 -233 -32 -444 v-69q-142 -41 -290 -70q-47 -13 -277 -47.5t-299 -37.5z" />
<glyph unicode="^" horiz-adv-x="2076" d="M-3 2158l646 76l-111 -1535q-437 10 -434 -25q3 32 -14.5 391t-86.5 1093zM19 189q-13 54 3 113q9 60 44 104.5t85.5 72.5t112 44t117.5 9q60 -22 110.5 -55t80.5 -75.5t42.5 -99t-3.5 -113.5q-13 -54 -46 -104t-83 -80t-110 -44.5t-123 1.5q-57 13 -107.5 43t-80 80 t-42.5 104zM589.5 217.5q-12.5 53.5 2.5 116.5q9 57 44 99.5t85.5 75.5t109 45.5t117.5 6.5q63 -16 110.5 -52t80.5 -78.5t44 -99.5t-1 -114q-13 -54 -49.5 -104t-83.5 -80t-108.5 -44t-121.5 2q-57 13 -107 42.5t-80 80t-42.5 104zM716.5 718q-20.5 -22 9.5 484t49 1111 l756 88l-381 -1702q-413 41 -433.5 19zM1143.5 192.5q-12.5 53.5 0.5 113.5t47.5 104t81.5 72t108.5 44t118.5 10q69 -19 116.5 -52t75.5 -77.5t42.5 -101t-4.5 -113.5q-13 -54 -46 -104t-80.5 -80t-108.5 -43t-121 0t-109 43t-79 80.5t-42.5 104zM1323 703q3 -6 91.5 509 t116.5 908l687 -85l-495 -1433q-403 101 -400 101z" />
<glyph unicode="_" horiz-adv-x="1402" d="M-28 6l1449 7l-22 -281q-791 13 -1377 -9z" />
<glyph unicode="`" horiz-adv-x="592" d="M-76 2124l426 107l195 -615l-318 -88z" />
<glyph unicode="a" horiz-adv-x="1663" d="M60 542q120 159 120 456v29q-3 38 88 482q44 230 94 482q82 13 378 54q129 16 385 53q44 -72 72 -447q22 -142 111 -482q183 -375 226 -517q-12 -54 -12 -108q0 -224 211 -440q-117 -32 -265 -63l-312 -63q1 9 1 18q0 76 -95 155q-126 91 -161 177l-362 -44 q25 -91 129 -177q1 -7 1 -15q0 -76 -83 -164q-158 44 -246 66q-221 50 -274 63q-88 138 -88 261q0 119 82 224zM674 1065q42 -219 42 -345q0 -23 -1 -43l265 4q-50 164 -177 387l-72 388q-22 -132 -57 -391z" />
<glyph unicode="b" horiz-adv-x="1707" d="M60 1991q123 54 265 82q148 32 280 32h30q140 0 260 -25q132 -28 239 -95q107 -57 170 -148q60 -88 73 -199q1 -14 1 -29q0 -96 -52 -197q-63 -126 -198 -240q135 -19 271 -107q158 -104 243 -205q69 -72 78 -129q1 -8 1 -17q0 -53 -48 -115q8 11 8 13q0 8 -153 -149 q-50 -50 -98 -129q-119 -208 -119 -228q0 -2 1 -1q2 0 8 5q-69 -69 -312 -107q-180 -28 -378 -28q-151 0 -362 22q-160 266 -160 432q0 64 24 113q25 52 25 161q0 149 -47 406q0 -2 1 -2t0 10q0 67 -26 566q-13 255 -25 308zM510 1670q0 -60 16 -183l16 -186q117 22 176 48 q88 41 130 116q17 36 17 71q0 43 -27 83q-44 66 -113 76l-104 -3q-47 -3 -111 -22zM558 466h129q66 3 135 19q82 19 152 54q82 38 138 101q24 27 24 56.5t-24 62.5q-44 60 -129 85q-75 26 -151 26q-88 0 -170 -29q19 -71 19 -133q0 -29 -4 -56z" />
<glyph unicode="c" horiz-adv-x="1433" d="M0 1081q-2 15 -2 33q0 88 37 250q32 161 78 265q54 120 130 227q66 91 176 173q98 72 208 104q73 20 149 20q45 0 90 -7q129 -16 265 -85q139 -72 281 -211q-35 -44 -73 -95q-60 -82 -72 -98q-32 -35 -79 -97q-38 -50 -73 -98q-148 95 -264 98q-107 0 -186 -73 q-76 -72 -110 -186q-36 -108 -36 -189q0 -26 4 -50q6 -57 126 -240q82 -126 113 -182q35 -63 121 -63h15q126 3 321 107l26 -183q9 -85 110 -180q4 -46 4 -84q0 -113 -36 -146q-82 -76 -255 -107q-60 -10 -115 -10q-62 0 -118 13q-60 16 -208 98q-35 19 -170 79 q-120 54 -192 94q-167 101 -167 237q34 184 34 251q0 20 -3 29q-95 202 -129 306z" />
<glyph unicode="d" horiz-adv-x="1660" d="M28 353q100 270 100 457q0 113 -37 195q-15 204 -15 602v50v341q173 35 330 47q103 9 197 9q76 0 147 -6q151 -16 271 -54q151 -47 249 -126q148 -117 217 -217q98 -142 129 -280q6 -35 16 -104v-108q-5 -43 -5 -88q0 -66 11 -135t11 -118q0 -61 -17 -93 q-28 -44 -290 -221q-88 -60 -233 -183l-110 -97q-13 -13 -57 -82q-91 -82 -321 -126q-202 -38 -426 -41q28 38 35 66q1 9 1 17q0 30 -17 49q-104 76 -154 123q-32 54 -32 123zM636 1040q60 -272 59 -387q0 -43 -8 -64q293 95 359 240q28 64 28 186q0 80 -12 185 q-22 154 -136 227q-95 61 -236 61q-18 0 -38 -1q-17 -327 -17 -416q0 -24 1 -31z" />
<glyph unicode="e" horiz-adv-x="1402" d="M57 476q74 201 74 362q0 79 -18 148q-31 110 -31 490v24l-10 510q243 28 290 35q243 28 297 35q189 25 286 34q183 22 300 35q0 -44 15 -133q0 -44 16 -132q23 -133 22 -133v1q0 -44 16 -133q-126 -9 -167 -12q-113 -9 -167 -13q-28 -3 -154 -19q-95 -9 -152 -19l-9 -72 l-3 -35l-13 -173q85 13 129 19q28 6 120 19q22 3 60 9l60 13q50 19 104 19h15q0 -35 19 -101l16 -202q9 -54 47 -104q-32 -3 -85 -12q-60 -9 -75 -13q-168 -27 -172 -27q-2 0 42 8q-98 -19 -103 -19q-47 -6 -104 -19q-1 -10 -1 -18q0 -30 16 -45l25 -72q0 -25 -25 -69 l-31 -63q47 6 176 22q113 16 170 22q82 13 174 25q101 13 176 22q-9 -22 -31 -66q-19 -44 -32 -66q-54 -72 -63 -133q0 -44 32 -132q47 -66 119 -132q-101 -6 -239 -26q-95 -13 -259 -40q-41 -6 -141 -26q-104 -22 -161 -31q-293 -54 -403 -76q-135 265 -167 514z" />
<glyph unicode="f" horiz-adv-x="1386" d="M28 444q118 252 118 403q0 63 -20 108q-66 192 -66 507v510q107 13 595 67q406 47 599 69q9 -88 41 -265q9 -88 41 -261q-183 -9 -353 -29q-183 -16 -328 -37l-9 -306q135 22 312 53q117 22 305 54q16 -132 32 -198q9 -82 82 -199q-132 -22 -321 -54q-161 -25 -385 -59 q10 -35 10 -78q0 -118 -76 -294q-3 -14 -3 -29q0 -130 220 -343q-198 -41 -305 -66l41 8q0 1 -400 -71q7 21 7 47q0 82 -67 211q-74 138 -74 218q0 19 4 34z" />
<glyph unicode="g" horiz-adv-x="1944" d="M0 1046q0 63 25 189q6 44 63 183q44 110 79 173q38 63 113 167q66 88 161 170q82 69 177 123q98 50 182 73q104 25 218 25q95 0 186 -22q85 -19 160 -63q72 -41 142 -104q63 -50 129 -145q-32 -28 -79 -85q-66 -57 -88 -82q-35 -28 -82 -85q-32 -28 -78 -85 q-85 98 -177 123q-42 11 -84 11q-54 0 -108 -18q-88 -28 -177 -110q-69 -57 -144 -183q-98 -154 -98 -255q44 -82 88 -290q4 -20 4 -52.5t-4 -76.5l-6 -104q25 -44 88 -66q58 -19 139 -19h22q63 3 151 31q66 19 167 73q95 47 176 107q82 57 82 136q-143 -26 -145 -26l16 3 l-63 -12q-41 -9 -66 -16q-107 -19 -136 -25q-85 -19 -119 -25l9 104q-19 35 -34 104q-16 38 -48 107q-18 41 -18 76q0 15 3 28q161 25 248 41q139 22 249 38q236 41 240 40q183 28 249 38q9 -32 15 -94l4 -51q3 -35 6 -50q0 -16 31 -110q32 -101 32 -117q6 -25 6 -50.5 t-6 -50.5q-9 -44 -73 -97q-19 -16 -119 -95q-60 -44 -98 -88q-126 -167 -142 -224q-44 -132 -44 -153q0 -4 2 -4h1q-85 -54 -264 -95q-141 -31 -288 -31h-9q-94 0 -160 22q-60 16 -129 56q-98 60 -193 101q-167 72 -249 139q-32 28 -72 85q-25 38 -38 88l16 91q13 47 47 98 l25 95q-3 16 -34 104q-16 54 -47 104q-13 25 -32 113z" />
<glyph unicode="h" horiz-adv-x="1625" d="M50 457q89 266 89 409q0 60 -16 98q-32 167 -32 504v504q227 35 322 48q202 32 318 47q-20 -170 -20 -290q0 -144 29 -214q-6 -236 -78 -451q91 16 141 22q63 13 145 25v813q323 48 323 49l-11 -1q214 32 322 47q-35 -290 -48 -564q-10 -222 -10 -351.5t10 -165.5 q28 -107 28 -205q0 -142 -59 -267q-20 -41 -20 -85q0 -149 218 -344q-167 -41 -296 -66q-95 -19 -321 -63q1 4 1 10q0 79 -184 377q3 44 151 391q-57 -3 -129 -22q-132 -25 -167 -31q-152 -246 -152 -315q0 -6 1 -10q9 -60 239 -274l-289 -63q-104 -19 -328 -66 q0 76 -107 258q-76 125 -76 204q0 23 6 42z" />
<glyph unicode="i" horiz-adv-x="800" d="M107 482q102 142 102 294q0 101 -45 207q-25 167 -25 501q-6 167 -7 504q110 16 152 22q139 22 151 25l154 22q35 6 136 26q-49 -343 -49 -505q0 -26 1 -47q-23 -232 -23 -365q0 -104 14 -148q29 -165 28 -281q0 -127 -34 -195q-36 -65 -36 -131q0 -150 187 -304 q-72 -16 -120 -31q-91 -19 -138 -32q-25 -6 -76 -16q-54 -9 -76 -15q-88 -19 -151 -32z" />
<glyph unicode="j" horiz-adv-x="1257" d="M-25 343q50 129 201 249q60 -6 104 -12h-2q0 1 97 -13q66 -9 104 -16l98 -12q84 115 84 239q0 62 -21 126q-72 154 -73 363v731q117 16 155 22q104 16 151 22q104 19 151 25q88 13 154 22q-16 -167 -41 -561q-17 -257 -17 -392q0 -91 8 -125q38 -150 38 -265 q0 -124 -44 -207q-38 -71 -38 -140q0 -147 173 -286q-126 -32 -249 -59q-192 -54 -286 -63l-89 12q-9 3 -217 38l-114 16l-110 15l-66 10l-63 13q-93 96 -93 201q0 23 5 47z" />
<glyph unicode="k" d="M63 1065v1011q198 32 296 48q192 32 296 47q-9 -142 -22 -227l-9 -173q192 158 255 214q63 50 227 205q69 -41 246 -120q167 -79 249 -117q-104 -82 -297 -248q-154 -123 -286 -249q217 -394 384 -583q-12 -27 -12 -64q0 -162 226 -519q-72 -47 -167 -139 q-60 -69 -217 -135q-375 323 -375 529v10q-9 167 -274 538q86 -325 86 -425q0 -21 -4 -32q-63 -167 -63 -286q0 -102 47 -167q-60 -32 -192 -63q-95 -32 -218 -66q-162 197 -162 400q0 53 11 107q42 82 42 190q0 137 -67 314z" />
<glyph unicode="l" horiz-adv-x="1339" d="M57 482q80 210 80 358q0 81 -24 143q-31 162 -31 481v20v504q57 9 287 47q117 19 305 48q-32 -265 -41 -388q-19 -236 -22 -372q6 -151 29 -353q34 -211 35 -318q0 -11 -1 -22q57 6 164 19t164 19q262 25 331 35q-98 -195 -129 -265q13 -142 110 -262q-176 -13 -448 -66 q-340 -66 -664 -129q-98 397 -145 501z" />
<glyph unicode="m" horiz-adv-x="2218" d="M25 498q161 224 161 452v24q0 -13 69 501q13 76 41 258q28 170 41 268q183 38 271 56q170 35 274 54q22 -170 88 -514q47 -340 79 -513l-3 -21l76 516q47 306 72 491l259 22q66 6 245 19q6 -104 73 -488q50 -337 104 -504l176 -520q-7 -37 -7 -73q0 -236 281 -460 q-132 -28 -290 -57q-302 -54 -337 -56q-9 85 -123 261q-113 173 -122 262q44 96 44 198q0 155 -101 322q20 -83 20 -161q0 -181 -108 -331q-14 -34 -14 -83q0 -143 118 -412q-180 -16 -249 -18q-158 -13 -240 -19l-217 545q38 77 38 176q0 157 -95 369q17 -97 16 -184 q0 -223 -110 -377q-16 -47 -16 -110q0 -74 22 -170q35 -148 35 -231q0 -28 -4 -50q-180 41 -255 57q-38 9 -129 28q-85 19 -129 29q-98 177 -98 301q0 84 44 143z" />
<glyph unicode="n" horiz-adv-x="1669" d="M82 416v18q0 337 110 518q-54 183 -66 535v533q28 6 280 50q164 28 275 47q0 -47 15 -107q3 -79 32 -145q69 -299 79 -362q28 -132 82 -318q22 -79 75 -152q0 3 104 -116q-76 183 -76 551v555q50 9 284 47q211 35 274 44q-35 -284 -44 -551q-9 -347 -9 -514 q23 -149 23 -261q0 -129 -30 -211q-35 -68 -35 -135q0 -152 177 -303q-183 -9 -239 -63q-47 -9 -139 -32q-95 -19 -142 -31v28q-6 28 -38 72q-258 173 -296 212q-101 120 -110 211l-9 82l15 47q-104 -146 -104 -310v-18q104 -233 164 -321q-158 -38 -312 -66 q-57 -13 -160 -35q-113 -22 -158 -32q-26 104 -26 339q0 88 4 194z" />
<glyph unicode="o" horiz-adv-x="1726" d="M3 1037q-2 23 -2 48q0 134 59 317q50 167 157 334q132 202 290 293q167 98 369 98q180 0 328 -82q126 -66 258 -240q44 -60 104 -170q47 -88 72 -186q25 -107 32 -198q13 -192 16 -211q46 -192 46 -288q0 -55 -15 -78q-164 -243 -350 -441q-46 -109 -46 -152 q0 -22 12 -27q-154 -98 -410 -98q-158 0 -296 79q-474 252 -474 253l27 -14q-91 50 -133 151v8q0 91 66 188q7 28 7 60q0 63 -29 138zM548 1131q-8 -41 -8 -77q0 -62 24 -109q0 -13 31 -91q56 -136 59 -136q2 0 -18 54l38 -101q11 -72 10 -79v-1v1q13 -38 47 -56 q38 -16 98 -16q85 0 167 38q142 63 186 113q39 45 39 110q0 14 -2 29q-3 50 -37 164q-9 28 -41 201q-16 85 -57 196q-35 98 -95 145q-60 50 -129 50q-69 -3 -135 -60q-69 -63 -120 -183q-35 -76 -57 -192z" />
<glyph unicode="p" horiz-adv-x="1562" d="M50 438q92 413 92 516q0 17 -3 26q-13 123 -26 646q-6 302 -41 403q217 57 401 82q186 27 340 27q44 0 85 -2q145 -9 258 -47q120 -41 208 -123q82 -76 129 -189t48 -274q0 -142 -25 -230q-32 -117 -89 -208q-54 -120 -72 -148q-38 -63 -120 -129q-88 -66 -224 -111 q-151 -44 -321 -69q-113 -140 -113 -230q0 -26 9 -47q25 -57 123 -161q95 -98 110 -151l27 4q0 1 -323 -36q-230 -22 -315 -28q4 12 4 27q0 68 -83 200q-83 135 -83 218q0 18 4 34zM602 1645q0 -176 9 -265l7 -265q82 0 160 29q88 28 151 88q47 41 73 88q28 50 41 123 q3 18 3 35q0 52 -28 104q-28 57 -95 82q-48 20 -106 20q-14 0 -29 -1q-76 -3 -186 -38z" />
<glyph unicode="q" horiz-adv-x="1858" d="M16 1015q0 154 82 371q66 183 182 341q158 198 338 299q180 98 400 98q176 0 321 -79q151 -85 258 -246q16 -63 52.5 -140t74 -154.5t97.5 -549.5q6 -35 6 -69q0 -218 -245 -407q0 -82 47 -148q66 -95 280 -218q-54 -57 -201 -122l-359 -126l-49 -70l121 173q5 21 5 41 q0 33 -14 63q-132 -79 -297 -119q-164 -38 -289 -38q-154 0 -256 82q-16 13 -409 239q-98 85 -129 174q-7 22 -7 47q0 63 47 145q36 67 36 130q0 33 -10 65q1 8 1 16q0 84 -83 202zM539 1100q-4 -11 -4 -30q0 -55 35 -175l63 -218l-6 -163q32 -63 135 -76q18 -3 39 -3 q83 0 195 44q3 38 19 110q15 75 18 110q-38 91 -151 221q25 19 88 50q-6 -3 98 51q35 25 95 50q28 16 113 54q-22 98 -31 132q-35 101 -57 142q-35 66 -88 113q-54 47 -120 48q-104 0 -192 -70q-82 -63 -145 -173q-76 -126 -104 -217z" />
<glyph unicode="r" horiz-adv-x="1613" d="M50 422q73 330 73 507q0 67 -10 111q-15 65 -15 515v58q0 224 -16 372q255 69 488 104q224 35 400 35q239 0 379 -95q135 -91 182 -283q1 -27 1 -52q0 -200 -89 -352q-101 -176 -318 -327q170 -479 457 -656q-113 -107 -123 -173q-16 -135 -199 -240q1 -1 0 -1 q-13 0 -375 373q-88 60 -170 435q-172 -309 -172 -395q-1 -30 19 -34q78 -16 210 -277q-91 -22 -280 -63q-57 -13 -174 -34q-110 -22 -173 -32q20 27 20 68q0 64 -48 162q-71 148 -71 236q0 20 4 38zM602 1213q54 22 113 54q60 35 104 69q72 60 104 98q58 77 58 118 q0 6 -1 11q-13 38 -41 56q-28 19 -79 23l-123 -7q-60 -9 -110 -22q-6 -38 -9 -101q-6 -66 -7 -97z" />
<glyph unicode="s" horiz-adv-x="1717" d="M28 929q-16 74 -16 141q0 110 42 203q76 164 271 391q189 208 378 321q180 110 353 120q24 3 46 3q129 0 224 -92q104 -95 155 -308q7 -35 16 -104q6 -79 15 -117l-119 -41l-139 -47q-76 -25 -120 -41q-41 -9 -129 -38q-9 66 -47 101q-35 35 -79 35q-69 0 -129 -32 q-44 -22 -114 -91q-35 -41 -47 -85q-5 -17 -5 -33q0 -28 15 -52q9 -25 47 -41l183 -10q22 3 97 16q72 13 136 19l129 6q151 0 249 -41q82 -35 161 -123q25 -47 47 -56q6 -9 25 -26l22 -28q36 -81 36 -148q0 -21 -4 -41q-19 -41 -224 -205q-173 -183 -199 -255 q-60 -161 -154 -208q-91 -47 -233 -76q-129 -25 -240 -25q-79 0 -151 22q-107 32 -161 63q1 9 1 19q0 78 -64 192q-15 27 -15 62q0 90 101 231q79 -41 107 -47q57 -19 119 -19l63 7q22 0 63 9q88 19 114 28q72 19 129 38q82 35 126 63q54 28 66 63q2 10 2 19q0 32 -27 38 q-35 16 -104 16l-129 -7q-28 -3 -167 -25q-88 -19 -177 -28l-233 3q-41 9 -78 31q-76 38 -130 95q-60 63 -104 135z" />
<glyph unicode="t" horiz-adv-x="1537" d="M-16 1456l25 271q0 91 16 271q428 41 712 69q429 41 722 69q9 -50 47 -274q16 -91 50 -274q-139 -6 -280 -13q-148 -9 -265 -15q-17 -146 -17 -301q0 -49 2 -100q0 -72 53 -192q57 -135 66 -192q1 -8 1 -17q0 -63 -57 -163q-69 -126 -73 -189q0 3 2 3q22 0 272 -352 q-57 -9 -167 -32q-107 -25 -164 -34q-258 -47 -368 -67q3 6 3 17q0 74 -139 380q98 82 145 404q1 10 1 22q0 68 -45 176q-57 142 -60 199v387q-76 -6 -227 -25q-164 -22 -255 -28z" />
<glyph unicode="u" horiz-adv-x="1707" d="M3 386q0 131 110 380q-41 158 -41 349q0 143 23 303q79 520 97 649q170 -12 296 -25q142 -9 306 -22q-9 -44 -25 -126q-16 -85 -22 -126q-28 -158 -51 -252q-44 -239 -47 -249q-31 -162 -31 -247v-5l41 -158q10 -42 10 -82q0 -56 -20 -107l-63 -164q6 -66 136 -66 q57 0 135 25q82 25 154 73q79 50 136 107q42 42 42 98q0 17 -4 34q-142 302 -167 665q-57 473 -73 668q192 -13 296 -19q107 -6 306 -16q9 -120 25 -356q9 -145 22 -356q22 -302 41 -356q96 -252 97 -339q0 -10 -2 -17q-28 -76 -101 -180q-69 -95 -82 -138q-19 -95 -57 -202 q-44 -72 -255 -120q-167 -38 -435 -63q-79 -8 -144 -8q-140 0 -215 37q-142 88 -280 173q-158 107 -158 238z" />
<glyph unicode="v" horiz-adv-x="1493" d="M-19 2001q208 41 312 60q79 16 306 59q24 -230 56 -567q25 -290 32 -362q13 -63 113 -476q-13 325 -25 451q-3 10 -3 29q0 78 50 314q35 265 48 542q85 -6 330 -28q120 -9 328 -25q-91 -287 -135 -460q-110 -435 -114 -479q-9 -372 -94 -495q-78 -108 -78 -224 q0 -137 109 -286q-258 -35 -394 -51q-9 0 -409 -47q1 7 1 16q0 69 -96 195q-113 151 -113 233q31 243 31 368q0 77 -12 108q-76 236 -129 548q-25 132 -114 577z" />
<glyph unicode="w" horiz-adv-x="2133" d="M-41 1919q107 22 280 57q9 3 290 56q54 -180 95 -488q25 -161 88 -488q32 350 57 519q32 350 57 523q158 13 239 19q41 3 120 10l119 9q19 -192 67 -573q47 -381 88 -574q6 189 72 564q22 183 88 561q101 -22 281 -60q85 -19 271 -56q-89 -269 -136 -445 q-110 -419 -113 -472q-19 -432 -63 -504q-49 -109 -49 -219q0 -154 96 -308q-69 -16 -302 -59q-63 -9 -177 -29q-120 -22 -176 -31q-54 126 -211 466q88 186 88 371q0 47 -6 95q-9 -142 -193 -444q0 -72 60 -224q52 -131 52 -205q0 -8 -1 -15q-101 -9 -281 -19 q-164 -9 -271 -16v8q0 79 -110 232q-85 129 -113 245q31 175 31 313q0 99 -16 179q-113 205 -185 498q-19 82 -67 252q-50 167 -69 252z" />
<glyph unicode="x" horiz-adv-x="1578" d="M-13 1922q85 47 259 139q154 91 249 141q16 -47 63 -138l72 -139q19 -50 47 -139q9 -25 32 -72q25 -47 31 -69q16 38 67 123q32 85 56 126q16 44 54 122q41 82 57 123q211 -16 321 -22q208 -16 312 -22q-211 -378 -287 -513q-101 -161 -296 -511q296 -325 302 -444 q16 -252 208 -391q-25 -85 -78 -151q-101 -63 -297 -151q2 12 2 24q0 140 -235 285q-193 142 -193 289q0 9 1 19q-162 -133 -162 -273q0 -10 1 -20q24 -57 24 -110q0 -100 -87 -183q-98 44 -208 67l-244 66h2q-26 80 -26 152q0 172 146 305q233 211 274 501 q-164 292 -233 434q-158 284 -234 432z" />
<glyph unicode="y" horiz-adv-x="1572" d="M-38 1856q211 91 322 135q205 88 321 136q9 -66 22 -158q9 -154 32 -189q9 -35 28 -101q22 -69 28 -104q32 -139 57 -208q79 243 129 363q79 239 126 362q167 -25 299 -41q126 -16 303 -41q-79 -158 -255 -551q-148 -331 -161 -526q-126 -126 -296 -501q-4 -26 -4 -57 q0 -75 23 -177q21 -76 21 -147q0 -47 -9 -92q-236 13 -262 13h-3h1q-161 9 -265 15q13 27 13 65q0 97 -85 266q25 123 239 334q-25 113 -176 300q-95 120 -167 302q-72 117 -145 302q-95 195 -136 300z" />
<glyph unicode="z" horiz-adv-x="1786" d="M-22 447q63 60 306 202q145 104 239 325q57 88 233 264q158 176 249 268q-161 -13 -315 -28q-158 -19 -343 -41q-32 123 -48 271q-32 183 -41 271q668 41 722 47q520 32 731 44l16 -536q-54 -63 -186 -189q-79 -82 -287 -327q-3 -3 -72 -126q-50 -91 -82 -133 q-79 -91 -167 -148q-129 -85 -161 -116q135 9 425 22q66 3 211 12l221 10q-36 -80 -36 -155q0 -56 20 -110q195 -243 202 -268q-447 -9 -867 -31q-394 -22 -753 -57q29 47 29 93q0 90 -117 172q-129 129 -129 264z" />
<glyph unicode="{" d="M69 1270q183 -16 372 -19q88 0 176.5 -1.5t183 0t190.5 6t191 17.5l-7 -391q-170 -13 -349 -19q-72 -3 -159 -4.5t-178.5 -1.5t-184.5 4.5t-178 11.5zM350 1739l138 359q139 -47 287 -104q57 -28 128 -59.5t140 -66t141.5 -74t138.5 -80.5l-88 -388q-142 88 -293 161 q-69 32 -137 66.5t-146.5 67.5t-157.5 63t-151 55zM406 331q158 60 309 132q69 32 143.5 71t148.5 77t152.5 85.5t144.5 91.5l158 -350q-132 -76 -271 -158q-57 -32 -126 -68t-143 -73.5t-153 -69t-151 -63.5z" />
<glyph unicode="}" d="M69 1667q132 82 278 160q57 32 126 66.5t140 74t148 71t153 59.5l208 -315q-148 -69 -306 -138q-63 -32 -138.5 -71.5t-151 -77t-153 -81.5t-146.5 -95zM208 394l88 387q145 -85 299 -160q60 -28 132.5 -61.5t151.5 -69.5t154.5 -66t154.5 -55l-142 -363 q-142 50 -280 114q-66 25 -132.5 55t-139 63t-146.5 74t-140 82zM378 901l10 391q164 13 340 19q82 3 167 4.5t174.5 1.5t182.5 -4.5t182 -14.5l50 -394q-186 16 -375 22q-79 0 -170 1.5t-187.5 0t-192.5 -7.5t-181 -19z" />
<glyph unicode="~" horiz-adv-x="1559" d="M-41 2095q403 54 677 3q369 -69 401 -352q41 -359 -262 -653q-78 -69 -198 -148l15 -268l-378 -56l-113 516q460 224 452 435t-562 66zM144.5 187.5q-9.5 55.5 6.5 108.5q16 63 52 109t88 74t110.5 44t124.5 6q54 -19 101 -52t78.5 -77t41 -99t-6.5 -112 q-19 -57 -56.5 -107t-86.5 -80t-110.5 -44.5t-121.5 1.5q-63 13 -108.5 43t-74 80t-38 105.5zM847.5 187.5q-12.5 55.5 3.5 108.5q9 63 45.5 109t86.5 74t110 44t120 6q60 -19 109 -52t80.5 -77t42.5 -99t-2 -112t-47.5 -107t-83.5 -80t-110 -44.5t-121 1.5q-57 13 -109 43 t-82 80t-42.5 105.5zM992 696q3 -6 8 58.5t11.5 168.5t16 233.5t15.5 267.5q22 325 44 744l570 -85l-293 -1443q-107 22 -186 31q-41 6 -72.5 11t-59.5 9.5t-34 4.5h-20z" />
<glyph unicode="&#xad;" horiz-adv-x="916" d="M88 1213l738 9l-10 -469q-400 22 -699 -16z" />
<glyph unicode="&#x2000;" horiz-adv-x="1410" />
<glyph unicode="&#x2001;" horiz-adv-x="2820" />
<glyph unicode="&#x2002;" horiz-adv-x="1410" />
<glyph unicode="&#x2003;" horiz-adv-x="2820" />
<glyph unicode="&#x2004;" horiz-adv-x="940" />
<glyph unicode="&#x2005;" horiz-adv-x="705" />
<glyph unicode="&#x2006;" horiz-adv-x="470" />
<glyph unicode="&#x2007;" horiz-adv-x="470" />
<glyph unicode="&#x2008;" horiz-adv-x="352" />
<glyph unicode="&#x2009;" horiz-adv-x="564" />
<glyph unicode="&#x200a;" horiz-adv-x="156" />
<glyph unicode="&#x2010;" horiz-adv-x="916" d="M88 1213l738 9l-10 -469q-400 22 -699 -16z" />
<glyph unicode="&#x2011;" horiz-adv-x="916" d="M88 1213l738 9l-10 -469q-400 22 -699 -16z" />
<glyph unicode="&#x2012;" horiz-adv-x="916" d="M88 1213l738 9l-10 -469q-400 22 -699 -16z" />
<glyph unicode="&#x2013;" horiz-adv-x="1789" d="M0 945v476h1790v-476h-1790z" />
<glyph unicode="&#x2014;" horiz-adv-x="3572" d="M463 945v476h2647v-476h-2647z" />
<glyph unicode="&#x2018;" horiz-adv-x="860" d="M148 1610l337 1153l646 57q-227 -608 -312 -1109z" />
<glyph unicode="&#x2019;" horiz-adv-x="860" d="M148 1610l337 1153l646 57q-227 -608 -312 -1109z" />
<glyph unicode="&#x201a;" horiz-adv-x="1080" d="M91 -514l360 1094h541l-541 -1094h-360z" />
<glyph unicode="&#x201c;" horiz-adv-x="1046" d="M25 1957l340 242q101 -463 262 -769l-284 -248zM492 2143l368 201q60 -469 189 -778l-305 -217z" />
<glyph unicode="&#x201d;" horiz-adv-x="998" d="M-25 1597q135 302 205 757l352 -199l-261 -769zM388 1462q158 293 264 747l331 -252l-328 -744z" />
<glyph unicode="&#x201e;" horiz-adv-x="1754" d="M91 -514l360 1094h538l-538 -1094h-360zM772 -514l350 1094h542l-542 -1094h-350z" />
<glyph unicode="&#x2022;" horiz-adv-x="1499" d="M72 1326q0 142 54 263.5t145 213t214 145t265 53.5q135 0 259.5 -53.5t214.5 -145t145 -213t55 -263.5q0 -135 -55 -259.5t-145 -216t-214.5 -146.5t-259.5 -55q-142 0 -265 55t-214 146.5t-145 216t-54 259.5z" />
<glyph unicode="&#x2026;" horiz-adv-x="2435" d="M120 293q0 72 26.5 133.5t69 109t107.5 74t134 26.5q76 0 135.5 -26.5t107 -74t72.5 -109t25 -133.5q0 -69 -25 -130.5t-72.5 -107.5t-107 -71t-135.5 -25q-69 0 -134 25t-107.5 71t-69 107.5t-26.5 130.5zM882 293q0 72 27 133.5t72.5 109t108.5 74t132 26.5t134 -26.5 t107.5 -74t72.5 -109t30 -133.5q0 -69 -30 -130.5t-72.5 -107.5t-107.5 -71t-134 -25t-132 25t-108.5 71t-72.5 107.5t-27 130.5zM1657 293q0 72 27 133.5t72.5 109t107 74t137.5 26.5q69 0 132 -26.5t107 -74t69.5 -109t25.5 -133.5q0 -69 -25.5 -130.5t-69.5 -107.5 t-107 -71t-132 -25q-76 0 -137.5 25t-107 71t-72.5 107.5t-27 130.5z" />
<glyph unicode="&#x202f;" horiz-adv-x="564" />
<glyph unicode="&#x2039;" horiz-adv-x="929" d="M91 1188l470 828l271 -154l-369 -674l369 -700l-271 -135z" />
<glyph unicode="&#x203a;" horiz-adv-x="929" d="M95 488l368 700l-368 674l277 154l463 -828l-463 -835z" />
<glyph unicode="&#x205f;" horiz-adv-x="705" />
<glyph unicode="&#x20ac;" horiz-adv-x="1751" d="M88 1011l32 237h154q-3 28 -3 56v67v59h-183l32 237h176q50 205 149.5 397t246 335.5t338.5 230t423 86.5q69 0 129 -6.5t135 -25.5l-50 -469q-82 16 -161 16q-135 0 -248.5 -46t-197 -120t-142 -178t-89.5 -220h778l-28 -237h-788v-56v-66q0 -28 6 -60h759l-31 -237 h-677q35 -113 94.5 -212.5t143 -175t189 -121t228.5 -45.5q82 0 164 19v-479q-88 -25 -196 -25q-233 0 -426.5 83.5t-341.5 225t-246 330.5t-145 400h-224z" />
<glyph unicode="&#x25fc;" horiz-adv-x="2205" d="M0 0v2206h2206v-2206h-2206z" />
</font>
</defs>
</svg>
