<?xml version="1.0" standalone="no"?>
<!DOCTYPE svg PUBLIC "-//W3C//DTD SVG 1.1//EN" "http://www.w3.org/Graphics/SVG/1.1/DTD/svg11.dtd" >
<svg xmlns="http://www.w3.org/2000/svg">
<metadata></metadata>
<defs>
<font id="obelixprobrokenregular" horiz-adv-x="1518" >
<font-face units-per-em="2048" ascent="1638" descent="-410" />
<missing-glyph horiz-adv-x="712" />
<glyph horiz-adv-x="0" />
<glyph horiz-adv-x="682" />
<glyph unicode=" "  horiz-adv-x="712" />
<glyph unicode="&#x09;" horiz-adv-x="712" />
<glyph unicode="&#xa0;" horiz-adv-x="712" />
<glyph unicode="!" horiz-adv-x="759" d="M54 66q-13 54 3 117l3 9q98 -236 107 -258q-9 -9 -25 -22q-25 22 -41 47q-35 50 -47 107zM63 353l16 22q38 44 85 76t110 44q32 6 60 9q-6 -104 -9 -173q85 44 -212 -101q-22 54 -50 123zM129 2086l637 -38l-164 -1137q-107 28 -164 41l-32 9q-22 331 -25 365 q-13 -148 -22 -387l-214 79l-6 327q-6 353 -10 741zM132 851l177 44l-170 66zM135 164q-22 44 45 -92q22 9 69 29q50 19 72 28l7 126q-113 -50 -193 -91zM135 788l16 -129l10 3l189 44l-22 132zM161 -142l47 -41l76 -22l-45 41l-53 32zM167 614q104 35 189 63l-3 -75z M173 -284l25 -15l-9 53zM198 -3q47 22 120 47l-6 -161q-6 -3 -38 -12l-22 6q57 -110 -54 120zM233 -356l29 -63l9 60zM290 -315l3 41l41 -28l3 -19zM369 41q13 249 6 157l157 7q-82 -208 -63 -161zM369 -145l3 107q19 3 82 3q-126 -312 -38 -100q-13 -4 -22 -7zM369 233 l9 221l10 -3q60 -9 113 -48q47 -35 79 -78l-10 -19l-25 -67q47 6 -176 -6zM391 -221l41 -25l22 32l-51 6zM391 636q6 151 9 275q32 -9 95 -26q63 -16 94 -25l-34 -233zM476 -72l44 -13q22 19 38 44q35 50 47 107q16 54 3 114q-3 9 -6 22l-16 9q-60 -158 -110 -283zM476 -79 l3 13l13 -3z" />
<glyph unicode="&#x22;" horiz-adv-x="942" d="M32 2117l393 123q-57 -457 -9 -791l-350 -141zM492 1330l37 816l400 69q-98 -457 -81 -788z" />
<glyph unicode="#" horiz-adv-x="2180" d="M60 854l400 19v201q-135 -3 -287 -22l-85 375l369 26v415l510 76q-25 -233 -47 -476l293 16v384l501 76q-25 -221 -38 -441l397 22l3 -369q-66 -3 -207.5 -4.5t-204.5 -7.5q-13 -107 -7 -211l385 22l25 -369q-135 -6 -410 -13q6 -85 10 -160l12 -161l-463 -107v410 q-107 -3 -309 -16q0 -145 13 -287l-460 -107v359q-72 -3 -135 -9l-152 -10zM895 898l318 16l3 208q-110 -3 -315 -16q0 -69 -6 -208z" />
<glyph unicode="$" horiz-adv-x="1603" d="M16 126v9l22 167q13 0 22 136q13 16 28 161h10q22 0 132 -95l57 -19q44 -28 78 -28q0 -19 199 -35q72 0 72 22l-3 13l3 179v215q-25 22 -129 38q0 9 -56 28l-57 25q-3 16 -38 16q0 13 -50 25l-95 79q-69 57 -94 113q-57 72 -85 211v139q0 44 25 110q32 117 160 246 q69 72 221 158q142 57 157 56q25 0 60 35l-3 44v117q0 41 32 41h201l19 -13l-3 -44v-104l13 -13h101q262 -19 293 -38l100 -25q98 -32 98 -56v-7l-22 -50l-22 -82l-73 -211l-63 -164h-3q-28 0 -75 31l-76 26q-66 25 -227 34l-60 7l-3 -22v-356l13 -16h41l107 -22 q107 -22 208 -73q95 -32 205 -138q63 -91 63 -107q13 0 15 -60q16 0 26 -76v-123q-25 -135 -98 -246q0 -16 -101 -119q-63 -60 -123 -92q-85 -60 -179 -94q0 -9 -63 -29q0 -6 -76 -18q-6 -9 -63 -19v-123l-19 -22h-176q-25 0 -29 19v78l-12 10h-26q-208 19 -308 38 q-25 0 -79 28q-151 41 -192 85zM406 1487q0 -63 98 -129q22 0 60 -32q19 0 41 -12h13l3 283l9 35q-50 -22 -98 -25q-6 -9 -69 -32q-57 -50 -57 -88zM860 388h3q95 19 145 44q19 0 41 25q38 0 88 88v76q-57 79 -138 101q0 19 -73 25l-25 15h-19q-12 1 -12 -15z" />
<glyph unicode="%" horiz-adv-x="1789" d="M3 145v3q79 72 211 265q135 186 394 598l173 278q252 406 511 857l22 12l47 -38q0 -6 28 -6q32 -38 180 -104v-9q0 -9 -63 -104l-157 -281q-13 0 -26 -41q-16 -6 -28 -50l-189 -315q-243 -403 -551 -854q-186 -255 -328 -410q-41 9 -224 199zM3 1594v123q22 107 69 180 q19 44 149 164q104 76 236 97h151q151 -41 170 -72q69 -19 126 -164l10 -82q0 -211 -158 -372q-120 -107 -211 -119q0 -22 -167 -35h-9q-148 0 -224 66q-85 50 -123 142zM343 1701q0 -72 54 -97l16 -7h44q50 0 110 86l16 78v22q0 63 -73 85h-53q-88 -35 -88 -75 q-26 -1 -26 -92zM851 287v9h3l-3 60v38q22 161 38 176q32 142 173 300q151 123 242 122l45 4q208 0 308 -189q22 -19 51 -130v-179q-25 -135 -73 -246q-101 -205 -277 -277q-113 -35 -142 -35h-28q-145 0 -246 126q-47 60 -72 139q0 19 -19 82zM1159 429q6 -104 35 -104 q0 -22 35 -23h34q41 0 104 92l26 104v6q0 95 -89 110h-31q-57 -28 -85 -78q-20 -31 -29 -107z" />
<glyph unicode="&#x26;" horiz-adv-x="1871" d="M79 532v32q0 82 19 135q16 50 60 123q28 44 85 104q101 104 182 152v6l-41 88q-88 164 -94 252q-3 0 -6 35h-4l4 19v34q19 132 41 133q0 35 97 148q82 69 161 94q3 7 113 29h111l110 -22q186 -54 290 -186q66 -85 66 -139q3 0 13 -63q0 -38 -23 -157q-9 0 -22 -60 q-6 0 -41 -54q-117 -120 -154 -139q-35 -32 -50 -31q0 -13 -26 -19v-9l196 -164q57 -44 72 -44q72 98 82 141q32 38 47 108q13 0 19 56l3 3h10q54 -41 76 -44q0 -13 113 -56l101 -38l6 -19l-38 -110q-6 0 -12 -35q-9 -6 -26 -41l-97 -161q0 -13 72 -41q69 -47 170 -94 q38 -13 60 -35v-3q-38 -79 -116 -186q-63 -98 -120 -157l-13 -4l-126 63l-195 120l-158 -107l-85 -38l-41 -16l-69 -22l-94 -25l-158 -9q-164 9 -220 34q-117 35 -155 73q-72 32 -151 179q-25 54 -44 167zM488 577q0 -35 51 -79q63 -38 113 -41h3q158 16 180 41q19 0 82 41 v12q-35 0 -284 262h-12q-95 -85 -123 -139q-10 0 -10 -22v-75zM636 1487q0 -101 54 -157q25 -32 50 -41q76 0 161 119l16 35v35q-19 16 -19 44q-54 57 -132 57l-57 -10h-13q-60 -41 -60 -82z" />
<glyph unicode="'" horiz-adv-x="860" d="M-76 1859l278 491l324 -126l-378 -478z" />
<glyph unicode="(" horiz-adv-x="853" d="M419 2420l221 -85q-362 -1216 -7 -2568l-204 -117q-882 1418 -10 2770z" />
<glyph unicode=")" horiz-adv-x="866" d="M214 2335l221 85q873 -1352 -10 -2770l-204 117q356 1352 -7 2568z" />
<glyph unicode="*" horiz-adv-x="1222" d="M25 1386l300 186q-113 72 -243 155l189 271l208 -152l38 262l293 3l-25 -129q-9 -72 -19 -132l274 176l104 -243q-148 -95 -312 -189l239 -176l-220 -236q-25 19 -164 122q-13 -113 -19 -226l-303 -51l41 287q-38 -25 -115 -75.5t-111 -72.5z" />
<glyph unicode="+" horiz-adv-x="1443" d="M88 1033l413 45l-50 384l507 35q-50 -287 -54 -391l366 53l72 -419q-192 -19 -381 -37q3 -129 38 -334l-467 -67v350q-139 -13 -324 -44z" />
<glyph unicode="," horiz-adv-x="645" d="M-113 -236l211 693l535 -25q-217 -369 -308 -668h-438z" />
<glyph unicode="-" horiz-adv-x="916" d="M88 1213l738 9l-10 -469q-400 22 -699 -16z" />
<glyph unicode="." horiz-adv-x="721" d="M22 195.5q-13 53.5 3 116.5q9 57 47 101t85.5 74t109 44t117.5 8q60 -13 110.5 -49t80.5 -80.5t42.5 -101t-3.5 -110.5q-13 -57 -45.5 -107t-83 -80t-109 -43t-124.5 0q-54 13 -105.5 43t-81.5 80.5t-43 104z" />
<glyph unicode="/" horiz-adv-x="1890" d="M-69 0l1484 2083l551 -130q-929 -1131 -1503 -2029z" />
<glyph unicode="0" horiz-adv-x="1723" d="M-32 1052q44 400 281 731q299 400 734 400q369 0 599 -330q113 -170 164 -375q44 -195 15 -426q-44 -388 -290 -715q-293 -400 -724 -400q-378 0 -605 325q-110 161 -151 365q-47 195 -23 425zM476 958q-9 -104 9 -183q22 -120 114 -189q91 -82 236 -82q198 0 321 164 q95 132 114 315q16 208 -63 413q-91 201 -252 201q-195 0 -341 -252q-117 -202 -138 -387z" />
<glyph unicode="1" horiz-adv-x="1206" d="M63 1916l1078 148q-123 -1093 -41 -1941l-558 -126l-10 1443l-444 -54z" />
<glyph unicode="2" horiz-adv-x="1679" d="M35 82q-60 280 34 479q113 239 637 485q293 135 321 265q9 72 0 123q-13 57 -63 101t-120 44q-154 0 -119 -196l-624 -97q32 621 444 781q110 41 243 41q258 0 498 -145q312 -186 365 -454q54 -246 -161 -479q-161 -176 -516 -318q-274 -104 -331 -208l898 47l41 -519 l-1513 -67q-22 63 -34 117z" />
<glyph unicode="3" horiz-adv-x="1638" d="M-35 492l630 75q-9 -28 -3 -63q9 -44 63 -44q25 0 57 6q145 35 205 120q28 32 19 63q-32 129 -363 129q-186 0 -491 -34l16 466q287 170 538 324q-290 -22 -573 -47l-72 529l1389 64q0 -208 16 -624q-221 -3 -526 -246q674 -79 746 -413q60 -287 -304 -570.5t-751 -258.5 q-460 32 -596 524z" />
<glyph unicode="4" horiz-adv-x="1594" d="M3 649l173 1349l640 78q-161 -602 -243 -1115l290 13l-3 825l574 82q-47 -561 -60 -882l160 9l51 -529h-110q-60 -3 -95 -3q0 -186 19 -366l-529 -113l-7 463q-328 -19 -671 -47z" />
<glyph unicode="5" horiz-adv-x="1578" d="M0 740l627 -41q-13 -60 0 -97q9 -54 60 -54q16 0 38 3q129 35 192 139q32 60 19 104q-16 57 -70 104q-76 76 -349 76q-120 0 -278 -13l-207 -41q-3 416 28 1096l1270 67l50 -514q-378 -19 -785 -35q-3 -44 -9 -126q816 -13 926 -393q63 -170 -44 -375q-72 -170 -230 -315 q-337 -321 -683 -322q-230 0 -388 195q-95 104 -132 294q-25 113 -35 248z" />
<glyph unicode="6" horiz-adv-x="1673" d="M9 1059q19 372 240 677q277 372 693 372q356 0 602 -312l-325 -413l-88 82q-63 44 -107 44q-214 0 -375 -343q202 57 391 56q167 0 324 -47q255 -79 303 -283q9 -57 6 -120q-28 -277 -268 -510q-255 -255 -589 -256q-362 0 -599 312q-135 173 -182 397q-35 164 -26 344z M595 668q76 -211 259 -211q66 -1 157 31q173 63 155 155q-9 41 -53.5 82t-97.5 41q16 0 -227 -51q-104 -19 -193 -47z" />
<glyph unicode="7" horiz-adv-x="1282" d="M-38 1462l25 529l1333 126l-567 -2073l-561 -47l385 1503z" />
<glyph unicode="8" horiz-adv-x="1833" d="M22 438q-54 243 123 466q110 161 318 265q-239 107 -277 293q-9 44 -10 104q13 230 268 400q239 151 555 170q321 13 548 -126q176 -110 211 -264q9 -44 6 -95q-9 -246 -305 -422q340 -142 400 -419q9 -57 6 -126q-9 -284 -299 -498q-284 -198 -662 -221 q-388 -25 -652 158q-192 126 -230 315zM605 618q16 -88 123 -142q98 -41 214 -35q154 9 268 98q117 91 94 211q-22 85 -124.5 130.5t-215.5 39.5q-151 -13 -268 -91q-120 -88 -91 -211zM715 1427q32 -123 230 -113q98 6 178.5 61t61.5 131q-13 63 -85.5 94.5t-138.5 22.5 q-104 -3 -183 -61.5t-63 -134.5z" />
<glyph unicode="9" horiz-adv-x="1805" d="M-41 1389q9 290 299 498q287 202 656 224q384 25 655 -151q195 -135 243 -328q41 -198 -82 -391q-290 -674 -444 -1219l-561 76l267 693q-34 -10 -135 -13q-397 -22 -652 155q-195 132 -237 321q-13 63 -9 135zM586 1286q19 -72 101 -108q85 -37 176 -28q129 6 224 74 t72 169q-19 72 -100.5 106.5t-179.5 31.5q-120 -9 -211 -72q-101 -72 -82 -173z" />
<glyph unicode=":" horiz-adv-x="740" d="M59.5 582.5q-12.5 53.5 3.5 113.5q9 60 47 104t85.5 72.5t108.5 42.5t118 5q63 -16 112 -49t79 -75.5t42.5 -99t-3.5 -113.5q-13 -54 -46 -104t-83 -80t-108.5 -43t-124.5 0q-54 13 -102.5 43t-82 80t-46 103.5zM59.5 1307.5q-12.5 56.5 3.5 116.5q9 54 47 101t85.5 77 t108.5 41t118 5q63 -13 112 -46t79 -80t42.5 -101t-3.5 -113q-13 -57 -46 -104.5t-83 -79t-108.5 -45.5t-124.5 -1q-54 16 -102.5 47t-82 78.5t-46 104z" />
<glyph unicode=";" horiz-adv-x="778" d="M-47 -145l201 882l520 -38q-211 -463 -312 -841zM118 1307.5q-17 56.5 5 116.5q13 54 49 101t85 77t113.5 41t124.5 5q72 -13 121 -46t80.5 -80t47 -101t0.5 -113q-19 -57 -55.5 -104.5t-85 -79t-113.5 -45.5t-128 -1q-66 16 -115 47t-80.5 78.5t-48.5 104z" />
<glyph unicode="=" horiz-adv-x="1323" d="M41 1371l1137 113l67 -422q-618 -38 -1078 -114zM79 766l1134 107l69 -422q-545 -28 -1074 -114z" />
<glyph unicode="?" horiz-adv-x="1228" d="M38 120q6 -25 16 -51q94 88 154 148l-25 29q-41 38 -95 91q-41 -44 -47 -101q-13 -60 -3 -116zM57 -88l110 -95l19 25zM76 -13q15 -6 160 -75q9 16 89 132q-117 113 -95 95q16 13 -63 -63q-170 -173 -91 -89zM76 -381l37 -25h10v69l-22 16zM79 1673l60 473 q422 -32 687 -142q359 -148 333 -438q-38 -372 -406 -602q-79 -47 -202 -101l-132 404q186 95 208 223q35 211 -548 183zM85 425q26 25 54 41q47 32 110 44l94 10q25 -47 45 -88q-63 -32 -193 -107q-47 44 -110 100zM88 1137l3 -69l82 -148l16 6q416 176 274 117l-44 211 q-129 -66 -331 -117zM91 1011l13 -375q54 47 94 89q-110 334 -91 261zM142 589l75 70q13 -28 38 -76zM183 876l126 -243l179 -9l22 186q-13 54 -44 179q-44 -16 -141 -56q-91 -38 -142 -57zM189 -183l60 -15l76 15l-57 16l-63 3zM189 -271l44 3l10 -16l-41 -12zM198 -403 l45 -98l12 95zM224 262q28 15 88 50q60 32 91 50q-50 113 63 -129q-110 -54 -141 -69q16 -19 -101 98zM280 -255l48 -7l-38 23zM302 -66q13 16 35 50q22 32 32 48q47 -44 88 -89l-25 -28l-48 -13l-9 -3q-334 154 -73 35zM359 113q180 -176 123 -119q25 19 69 47l-69 132 q-101 -50 -123 -60zM403 476q41 -13 73 -38q47 -32 75 -73q-25 -13 -75 -28q-16 32 -73 139zM479 262q16 6 76 31q16 -31 22 -69q13 -57 0 -111l-7 -25q-47 91 -91 174z" />
<glyph unicode="@" horiz-adv-x="2495" d="M-6 737q0 551 214 949q189 343 517 523q299 161 649 160q425 0 756 -226q410 -271 410 -713q0 -325 -246 -809q-205 -400 -693 -656l-259 246l38 258q-195 -135 -403 -135q-145 0 -240 91q-123 110 -123 287q0 302 246 570q193 214 429 268q113 28 220 0l3 22q60 6 104 7 q28 0 86.5 -6.5t90.5 -6.5q54 0 110 13q-57 -299 -104 -561l-107 -555q312 290 388 539q41 135 40 246q0 302 -280 475q-227 148 -504 149q-454 0 -700 -322q-186 -246 -185 -630q0 -277 122 -646l-491 -334q-88 441 -88 797zM989 722q0 -113 98 -114q91 0 167 82 q57 63 69 139q13 72 -32.5 113t-105.5 28q-72 -16 -134 -89.5t-62 -158.5z" />
<glyph unicode="A" horiz-adv-x="1502" d="M-41 50l63 -12l-47 63zM-35 217l48 -56l204 110l-91 265l-72 -16zM32 95l192 103l53 -157zM32 542l53 16l-25 88zM91 725q170 646 271 1282l725 104q85 -561 265 -1241q-186 -306 -183 -300l-10 -15l-195 34q-41 6 -116 22q-79 13 -114 19q3 104 3 117l111 3l-130 743 l-119 -746h97l-3 -29l-280 38l-60 265l35 -482q-170 -28 -205 -38q-57 142 -92 224zM173 -91l107 41l4 15l-60 -3zM198 460l196 38l31 -252l-138 -38zM306 107l37 -104l111 29l-19 110zM318 -123l13 -50l28 6l13 54zM410 -57l141 -31l-9 50zM419 715l41 -343l199 9l28 296z M438 -214l19 -22l44 3l-22 44zM488 325l35 -268l54 274zM712 384l208 26l41 -183l176 290l-406 69zM936 79l75 123l38 -180l-85 -19l-12 6zM1037 243l69 -183l94 19l89 75l-211 155zM1056 -72l119 3l-31 66zM1131 416l161 271l151 -142l54 -183l-180 -151zM1175 -161l41 -34 l3 31zM1254 -41l41 -25l13 -3l-4 75l-22 22zM1308 88l217 47l-19 63l-31 32zM1317 718l22 -22l82 -75l-57 205zM1326 -183l38 -3l-22 51zM1393 16l126 -38l9 44z" />
<glyph unicode="B" horiz-adv-x="1556" d="M60 2010q233 107 523 110q309 0 504 -116q211 -126 227 -334q1 -14 1 -28q0 -218 -237 -420q299 -38 422 -299q9 -22 16 -44l-114 -290l-413 -9l-34 331l-19 -60q-35 41 -79 56q-66 25 -140 25q-57 0 -118 -15q-47 57 -60 75q13 -66 28 -447l82 -3q19 -69 28 -107 l-189 -73l-267 473l179 -406l-274 -130q0 381 -22 864q-38 785 -44 847zM132 214l293 151l38 -72l-208 -202zM142 -13l132 -25l-123 145zM293 38l192 214l85 -170l-91 -73l-167 10zM365 -101l89 19l-13 19zM492 1701l28 -356q236 47 293 161q31 60 31 104q0 96 -148 113 q-20 2 -42 2q-74 0 -162 -24zM507 -19l180 22l-16 60zM510 325l120 -234l123 60l-63 243zM636 -170v-54l51 13zM699 545q63 3 111 19q66 19 107 54h19l19 -293l-186 -45zM766 28l6 -132l31 25zM775 183l35 -139l145 35l25 179zM851 -132l94 -95l25 167l-25 -16zM851 -347 v-50l25 -3l13 16zM983 0l63 16l-41 179zM999 514l9 -186l303 -13l78 195zM1059 258q6 -104 9 -167q154 53 277 148l13 32zM1399 312q22 25 41 50q91 126 98 265v19l-41 22q-44 -154 -98 -356zM1512 725l41 -32l-12 117z" />
<glyph unicode="C" horiz-adv-x="1345" d="M-3 1106q6 280 113 526q107 252 290 384q161 119 346 120q40 0 80 -6q258 -35 523 -284l-142 -189l-142 -186q-143 94 -255 94q-98 0 -174 -72q-132 -126 -132 -383v-26q6 -274 148 -403q19 -16 38 -29l-16 -189l-255 -9l-192 589l57 -265l-224 -94q-63 196 -63 403v19z M41 636l221 92q63 -265 100 -388l-135 -34q-82 101 -142 226q-25 50 -44 104zM325 236l113 29l38 -158q-79 54 -151 129zM451 388l242 12l6 -145l-195 -47zM495 180l186 44l6 -133l-120 -19l-50 23zM526 -63l110 76l26 -73zM595 -192l136 75l22 -56l-142 -41zM703 646 q55 -30 118 -30q115 0 253 102l85 -110q-50 -101 -116 -255l-22 -47l-290 -4q-19 262 -28 344zM747 221h268l-86 -202l-37 -6l-66 -10l-70 16zM816 -249l19 44l101 -104l-63 -66zM958 -148l28 69l22 -22l-9 -72zM1018 -13l66 48l12 -44zM1033 107l133 416l176 -154 q-110 -176 -246 -274z" />
<glyph unicode="D" horiz-adv-x="1581" d="M60 2054q291 62 524 62q65 0 125 -5q309 -28 498 -173q268 -208 324 -479q14 -79 15 -158q0 -25 -2 -50q-9 -151 -57 -290l-57 -129q-113 -217 -334 -388q-60 -47 -126 -88l-34 -3l-38 413l-22 -249l-255 -10l-196 621l63 -296l-293 -123l-69 126l95 -287l-149 -135 l-3 1323q-6 284 -9 318zM79 132l97 -94l-88 -3zM95 195l97 -94l133 12l104 57l-167 328l-167 -155v-148zM161 -126v-54l50 10zM221 -54l129 29l-120 25zM230 662l170 -325l211 51l-97 390zM284 -135l28 6l-10 16zM384 -173l38 -25h13v75l-25 19zM410 271l201 50l44 -154 l-167 -47zM520 -101l135 3l-25 73zM573 6l145 32l-82 50zM605 703q406 164 406 505q0 41 -6 84q-36 278 -343 278q-20 0 -41 -1q-24 -331 -24 -590q0 -150 8 -276zM652 432l51 -183l195 50l-6 145zM728 195l224 54l-215 -91z" />
<glyph unicode="E" horiz-adv-x="1342" d="M57 2001l554 66l555 66l34 -255l35 -252q-167 -13 -318 -29q-151 -13 -290 -31l-16 -136q-6 -66 -6 -135l233 38l230 38l22 -196l22 -192q-224 -35 -293 -44l-154 44l-3 -31v-41l-54 -10l-6 -258l53 9l-6 -195l-170 -16l-104 397l44 -318q-88 -13 -293 -51q-16 32 -50 95 l-7 454zM104 -139v-85l205 44l-63 117zM110 331l129 -246l-126 -66zM145 391l148 -278l180 82l-44 249zM343 25l16 -31l161 31l-13 76zM488 403l41 -236l117 22l3 230zM573 -60l142 -50l32 97l-57 10l-79 12zM693 268l161 -6l57 264l-212 57zM693 652l221 -63l22 104l-25 -6 zM715 -296v-54l51 13zM718 69l54 10l79 12l19 76l-152 9v-107zM731 895l6 -69l114 47zM851 -318l53 12l-15 26zM898 123l60 287l318 -101l-110 -155zM923 -198l145 6l-28 79zM936 507l179 -56l148 -48l-9 76l-32 255l-248 -38l-13 -69zM1144 -91l94 6l-16 110z" />
<glyph unicode="F" horiz-adv-x="1288" d="M25 2001l1141 129l72 -507q-343 -19 -643 -67l-9 -293l586 104l57 -381q-356 -54 -643 -107l6 -384l-230 -10l-195 621l60 -296l-183 -79zM47 687l192 79l101 -388l-214 -53l-76 148zM91 331l98 -196l-94 -53zM104 -3v22l113 66l29 -57zM158 274l201 54l51 -183l-155 -60 zM255 -145l44 54l3 -63zM337 19l92 -16l-7 -47l-82 6zM378 -205l63 -6l-12 -101zM381 419l218 10l9 -149l-176 -44zM432 176l138 32l29 9l9 -100l-151 -35zM510 -110l108 75l25 -72l-88 -6z" />
<glyph unicode="G" horiz-adv-x="1805" d="M3 898q-1 19 -1 38q0 84 11 173q19 186 88 359q66 170 183 328q145 189 321 284q171 94 380 94h4q183 0 328 -82q148 -79 258 -239l-154 -164l-154 -161q-110 128 -245 128q-51 0 -105 -18q-180 -60 -315 -280q-117 -195 -117 -405q0 -61 10 -124q22 -145 110 -224 q57 -54 142 -73l-174 -154l-434 372l151 -161q-66 -54 -170 -138q-19 37 -35 72q-38 88 -60 186q-19 88 -22 189zM154 378q16 -28 32 -57q69 -91 148 -157l145 211q-95 95 -151 145q-69 -60 -174 -142zM410 148q35 -22 69 -41q66 -35 139 -53l59 176l-157 158zM621 356 l198 176h76l138 -280l-192 -107zM677 0q82 -19 174 -19h12q19 22 32 32l-25 25q-60 57 -145 138zM703 -318v-54l53 13zM775 -129l101 -22l-60 63zM807 822q9 -16 15 -25l16 6l274 117l-22 91l-41 205l117 -356q69 13 126 22q-25 -91 -82 -167l38 -120l255 10l22 249l35 -366 q25 35 50 76q50 85 88 176q35 95 60 196q25 113 25 214q0 104 -22 192l-466 -75l-469 -79l-10 -202zM810 -340l47 12l-16 22zM876 759l249 101l12 -47zM920 72l180 101l50 -101l-186 -44zM933 -176l15 34h142zM933 -422l41 -25h12l-3 75l-22 19zM948 555q111 19 196 91 q16 13 28 28q28 -101 50 -186q-198 -50 -211 -53q-22 44 -63 120zM1030 378l101 -192l151 63l-47 180zM1109 -290l60 -94l16 167l-19 -16zM1207 47l34 -47l130 113l-38 35zM1245 526l242 16v-148l-189 -47zM1323 299l130 32l-111 -101z" />
<glyph unicode="H" horiz-adv-x="1547" d="M44 630l199 -252l-196 -120zM60 2004l611 88q-57 -536 -66 -914l271 44l-3 782l611 88q-67 -673 -67 -1224q0 -72 1 -143l-293 53v331l-44 -243l-278 38l-63 265l29 -375l-174 -28l7 -111q-13 -3 -32 -6q-41 110 -173 422l88 -343l-353 -92l-66 82zM63 60l6 -73l22 51z M104 148l151 -98l227 48l-154 201l-224 -138v-13zM154 -47l32 -51l47 22l-53 35zM186 595l227 -286l205 110l-95 265zM378 -76l164 139l66 -98zM457 255l192 104l10 -25l15 -164l-126 -28zM668 47l35 -104l-7 111zM807 863l9 -60l60 10l3 -293l170 9l25 297zM826 -66l15 -22 l142 41l-22 56zM851 296l22 -192l107 19l35 353l-164 -10v-170zM854 -217l41 -29l12 76l-25 19zM992 -243l51 -107l13 101zM1065 145l154 -19l63 110l-211 10zM1084 -32l85 16l-82 13zM1109 302l233 -12l111 176l-7 189l-299 54zM1282 72l104 23l-69 31zM1367 167l89 151 l15 -205z" />
<glyph unicode="I" horiz-adv-x="759" d="M95 643v126l31 -95zM110 851v1222l284 47l283 45q-57 -551 -66 -1028v-491l-88 -3l-198 620l63 -296zM117 810l167 -328l214 54l-101 387zM139 561l28 28l167 -324l-192 -111zM173 79l25 -22l196 47l-38 79zM211 -25l13 -22l28 -7l173 -6l-12 79zM296 425l98 -192l154 63 l-50 180zM318 -205v-53l54 12zM454 158l116 85l3 -32zM460 -202l50 13l-15 25zM488 -25l101 -19l-60 63zM514 577l75 6l10 -177l-35 -9zM608 340l25 7l3 -123z" />
<glyph unicode="J" horiz-adv-x="1241" d="M-28 95l116 283l369 -359l-155 25l-214 32zM60 457l63 151l350 -44l9 -32l-255 -236zM262 265l248 223l164 -324l-192 -110zM485 -135l16 37l82 -34zM532 555l16 122l218 92l100 -391l-214 -53zM542 1976l293 44l290 47q-54 -564 -66 -1040v-517l-174 -6l-195 621 l60 -296l-205 -89zM555 3l163 95l29 -60l-161 -38zM621 -135l94 63l51 -111l-104 -6zM681 277l201 51l51 -180l-155 -63zM781 -277l26 25l12 -47l-28 -3zM816 -132l28 66l22 -19l4 -76h-13zM863 6l73 63l31 -37zM901 435l161 9l6 -160l-116 -32zM958 180l110 25l6 -101 l-91 -19z" />
<glyph unicode="K" d="M50 425l265 -249l25 -25l-28 -60l-258 -63zM72 2023l571 91q-28 -239 -32 -381q249 205 454 400l482 -227l-567 -476l387 -699q-25 -148 -37 -199q-88 16 -293 51q-6 66 -70 384l13 -277l-218 -25l-189 419v-369q-22 41 -170 290l133 -312l-407 -208l-47 51zM113 -6v-35 l29 6zM161 463l390 199l22 -41l7 -183l-296 -91zM227 -129l41 -25l12 72l-25 19zM340 296l126 -116l126 31l-6 139zM365 -280l51 -108l13 101zM369 -101l15 -22l133 38l9 3l-22 57zM460 107l180 -85l-32 104zM778 630l142 -315l110 16l-44 321zM926 252l98 13l32 -230 l-26 -13zM1043 542l47 -312l192 16l44 249zM1106 -104l41 -25l12 -3l-3 75l-22 19zM1109 117l16 -111l157 73l10 53zM1163 -233l15 -110l158 75l9 51zM1216 -88l133 6l-26 73zM1323 142l35 217l161 -38l-41 -107zM1361 438l164 -44l13 31l-139 249zM1478 91l75 35l-37 66z " />
<glyph unicode="L" horiz-adv-x="1206" d="M57 35l145 -142l-145 -35v177zM76 1913l567 91q-69 -674 -73 -1251l-94 303l60 -297l-290 -123l-70 123l95 -283l-192 -177zM79 158l170 -164l69 15l139 79l-164 325l-214 -192v-63zM271 580l284 113l97 -387l-214 -54zM299 -126l136 3l-25 73zM460 164l202 53l50 -179 l-170 -32zM498 -262l79 16l-41 41zM498 -340v-136l53 82zM614 611l331 38l-19 -205l-255 -9zM681 -139l41 -28h12l-3 76l-22 19zM687 388l50 -183l196 50l-7 145zM725 -460l47 -107l16 101zM747 139l142 34l47 13l3 -73l-177 -25zM813 -107l16 -25l141 44l-22 56zM964 555 l205 22l47 -391l-220 -3zM986 132l227 3l6 -72l-227 -19z" />
<glyph unicode="M" horiz-adv-x="2095" d="M-41 135l88 287l63 -69l-110 -227zM50 63l221 -44l60 63l-180 186zM88 583l252 -114l73 67l-117 252l-173 -82zM98 425l116 -94l35 -25l88 107l-224 123zM129 -198v-54l54 13zM135 753q142 583 227 1251l520 104l155 -983l135 945l492 38q98 -829 371 -1743 q-123 -82 -223 -148q-28 44 -89 139q-60 91 -91 139q35 47 183 296l-328 -419l-132 668l-88 -700l-67 19l79 372l-82 -214l-198 56l3 473l-19 -157l-243 -35h-12l-66 249l-73 -457l-145 -79l-236 429l72 -174q-54 -25 -145 -69zM262 239l119 -126l161 95l3 38l-116 249z M299 -19l101 -19l-60 63zM334 -315l57 -54l15 98l-18 -9zM350 -110l164 138l66 -100zM460 532l85 -179l38 246zM731 816l44 -324l177 -7l28 363zM781 397l26 -192l132 16l9 170zM822 101l19 -158l92 7l12 163zM980 -47l110 9l19 76l-123 16zM989 359l164 -9l35 129l-189 50z M999 151l88 -9l19 75l-101 7zM1163 110l82 -56l9 3l25 205l-72 25zM1166 -117v-66l31 -6l19 19zM1374 -255l119 9l-37 60zM1487 271l110 145l174 -265l-230 -154zM1544 -164l16 -25l138 44l-19 54zM1572 -318l41 -25l13 -4v76l-25 22zM1642 -35l135 29l-25 47zM1711 -343 l47 -108l16 104zM1805 110l32 -63l274 54l-57 183l-233 -161z" />
<glyph unicode="N" horiz-adv-x="1632" d="M76 82v428l330 -321l23 -25l-167 -167zM85 2026l567 94q9 -85 47 -242q85 -375 174 -656q54 -161 110 -258v1065l567 91q-77 -740 -77 -1358q0 -109 2 -214l-290 -3l-38 413l-22 -252l-255 -10l-199 621l63 -296l-290 -123l-72 126l97 -287l-258 -233l-123 120zM88 -22 l133 -63l-10 -16l-123 -31v110zM243 438l220 -211l123 72l-9 196l-85 170zM321 -19l281 69l-104 101l-76 -72zM441 -85l158 -10l-16 -66l-132 44zM463 863l284 114l97 -388l-157 -41l-32 47l-78 127v-76zM514 205l91 53l9 -148zM529 -280l41 -29h13v76l-25 19zM681 76 l41 -29h12v76l-25 19zM712 488l142 35l50 -180l-75 -31zM882 649l51 -180l198 48l-6 148zM907 236l63 26l51 -190l-44 60zM967 413l32 -117l160 29l-6 132l-44 -13zM1049 -41l79 -60l-44 79zM1068 192l151 25l7 -167l-114 -25zM1191 476l9 -199l155 -41l104 243zM1251 -180 h44l91 7l-28 72zM1286 221l132 -35l-19 -44l-107 -25zM1301 -72l148 31l-85 50zM1415 76l129 28l-10 110l-53 16zM1462 384l25 67l6 -76z" />
<glyph unicode="O" horiz-adv-x="1644" d="M3 1062q19 369 211 671q239 372 630 372q331 0 558 -309q120 -164 170 -340q42 -162 42 -347q0 -24 -1 -47q-9 -205 -79 -391l-264 47v331l-44 -246l-136 23q19 79 22 173v15q0 190 -72 366q-76 186 -211 186q-148 0 -243 -230q-76 -180 -82 -362v-24q0 -75 16 -143 q25 -91 72 -148q-101 -25 -315 -82l-271 315q-4 55 -4 112q0 29 1 58zM6 879q13 -113 41 -217q9 -32 19 -60q50 32 88 53zM76 532l100 57l224 -299l-132 -79q-35 41 -70 85q-76 104 -122 236zM306 539l226 -287l205 113l-85 240l-25 19zM318 173q136 -132 306 -170l12 10 q-32 38 -94 119q-60 79 -91 120zM583 167l192 104l57 -173l-126 -92zM718 -126l22 -38l26 10l6 6l-38 25zM731 545q32 9 76 16q57 0 100 19l22 6q6 -57 29 -252q-72 -22 -139 -41q-57 161 -88 252zM759 -82l48 -3l97 6l-25 79zM826 -306l9 -25l88 22l-3 13zM854 198l50 -141 l101 9l-22 170zM895 -186l19 -25l142 44l9 3l-22 60zM977 621q13 -107 19 -164l204 9l19 300l-141 19q-16 -41 -35 -76q-28 -54 -66 -88zM1008 394l41 -334l117 63l28 280zM1115 -186l92 19l-88 13zM1153 -3l54 -114l15 111zM1235 79l60 53l-57 3zM1245 217l66 -3 q54 57 101 126q76 117 122 237l-255 47q-6 -60 -16 -205q-13 -129 -18 -202z" />
<glyph unicode="P" horiz-adv-x="1471" d="M44 2013q419 104 700 104q44 0 85 -3q293 -19 444 -164q161 -154 167 -447v-12q0 -226 -110 -407q-95 -158 -268 -265q-66 -44 -145 -79q-9 120 -22 212q-6 -44 -10 -117l-9 -110q-35 -13 -73 -26q-78 -11 -129 -11q-35 0 -56 5l-193 589l57 -264l-290 -123l-69 123 l94 -284l-141 -132l3 400q3 181 3 331q0 554 -38 680zM66 -170l29 66l22 -19l3 -75h-13zM69 41l10 252l97 -95l26 -28zM69 375l3 148l167 151l164 -324l-192 -111zM76 -3l88 82l66 63l98 -95l-19 -28zM202 -325l66 -3l-16 -104zM208 -142l135 73l22 -54l-141 -44zM211 857 l284 117l78 -331v-63l-192 -51zM262 205l179 101l63 -130l-142 -69zM384 -28l130 63l44 -82l-139 -16zM425 507l170 44l10 -204l-82 -32zM520 224l60 25l12 -170zM548 1642l13 -511q183 3 299 114q82 79 104 201q4 25 4 48q0 122 -114 166q-47 20 -109 20q-85 0 -197 -38z " />
<glyph unicode="Q" horiz-adv-x="1777" d="M25 1052q41 372 265 687q287 384 696 385q350 0 561 -315q117 -161 158 -350q31 -138 31 -276q0 -326 -173 -647l3 -10l-10 -22l-18 -47l-290 -3q-25 306 -38 412l-10 -126q-6 -76 -12 -122l-218 -10l-132 296l-19 60l208 95l214 97q-22 154 -85 268q-82 151 -208 151 q-176 0 -318 -230q-120 -202 -135 -409l3 -114l-63 111l97 -284l-258 -236l-230 220q-9 41 -3 19q-25 114 -25 240q0 78 9 160zM79 529q60 -57 205 -198q132 -129 204 -202l26 -25l-54 -54q-151 76 -262 240q-76 110 -119 239zM315 388l249 223l164 -324l-192 -111zM520 0 l44 41l82 -79zM561 139l179 104l67 -130l-145 -72zM643 545q116 -83 205 -83q37 0 69 14q-195 -51 -211 -54q-28 54 -63 123zM715 -3l129 63l38 -69l-104 -10l-47 3zM731 372l202 50l50 -179l-154 -60zM857 101l142 57l47 -186l-104 -32zM939 -208l202 44l12 -79l-173 7 l-28 6zM958 517l44 19l-10 28l196 9l6 -144l-195 -51zM1008 337l142 35l44 12l6 -132l-160 -28zM1046 -388l54 -41l-54 -12v53zM1056 123l151 25l3 -76l-126 -66zM1153 -410l32 35l15 -22zM1216 -208l41 44l63 -63zM1248 110l132 -31l-44 -101l-82 19zM1248 381l268 3 l-104 -242l-155 41zM1304 -325l63 35l16 13l-16 -107zM1412 -95l18 48l35 -19zM1437 16l6 16l63 148l217 -70l-223 -126zM1506 252l69 164l111 -221z" />
<glyph unicode="R" d="M44 1991q504 135 848 136q463 0 535 -366q3 -32 2 -63q0 -387 -402 -642q44 -66 218 -284l-35 -183l-10 -50l-280 -70q-95 293 -129 394l35 -245q-3 -3 -130 -38l-151 223l-3 -192l-296 501l88 -192l41 -85l-243 -176l-12 -7q-16 13 -54 57q1 180 1 336q0 729 -23 946z M69 290l7 343l110 -173zM72 -50v110l130 -79zM85 145l3 88l148 211l107 -129l-185 -211zM145 621l249 173l148 -290l3 -82l-164 -82zM183 110l217 161l69 -136l-157 -91l-54 -3zM249 -95l25 29l32 -22zM290 -239l98 59l47 -107l-104 -9zM403 -101l101 101l66 -91zM422 268 l133 72l12 -230l-9 -6zM542 1245q107 47 205 119q149 120 149 205q0 8 -1 16q-13 69 -114 75h-14q-77 0 -209 -28l-10 -192zM699 529l111 32l38 -142l-54 -25zM819 347l41 25l35 -129h-3zM854 25l50 -41l-50 -12v53zM907 107l19 44l35 -16zM942 384l262 63l-48 -258l-157 3z M952 -287l69 44l35 -78l-76 -7zM955 -180l6 41l85 -22zM1024 85l135 -3l-18 -107l-70 -7l-25 38zM1059 -217l28 69l25 -19v-76h-12zM1191 110v16l31 161l186 -16l-189 -167zM1194 -132l69 66l35 -38zM1207 331l63 343l230 -283l-29 -54l-34 -28z" />
<glyph unicode="S" horiz-adv-x="1600" d="M0 970q-2 20 -2 41q0 291 327 665q365 410 693 429q12 1 24 1q294 0 379 -383q19 -98 32 -214q-73 -25 -243 -85l-240 -79q-28 132 -119 133q-126 0 -227 -117q-49 -60 -49 -118q0 -23 8 -46q25 -53 141 -53h4q66 0 167 19q120 19 217 22l32 -193q9 -54 34 -182 q22 -113 32 -180q-95 -9 -218 -22q65 42 65 88q0 5 -1 10q-16 69 -155 69q-60 0 -154 -13q-25 25 -142 215q22 -47 50 -117q25 -66 44 -107q-35 -3 -69 -9q-176 -35 -274 -35q-123 0 -198 41q-151 69 -158 220zM271 60l117 350l226 -208l-122 -211zM369 479l299 -268 q142 57 271 114q-28 50 -117 211q-35 -9 -66 -16q-54 -16 -107 -16q-88 0 -180 35l-88 -35zM551 -44l111 -10l78 7l51 79l-38 37l-113 98zM699 -202l23 -25l50 3l-22 54zM731 148l148 -132l120 56l69 38l-82 145zM791 -38l25 38l28 -25zM819 -350l44 -28h13v82l-28 19z M876 536l343 34l54 -274l-221 -79zM952 -91l9 -117l41 3v133zM1093 158l129 47l-113 -79zM1100 -28l44 69l60 -47zM1153 1119l76 -363l57 -287q41 3 192 7q6 16 19 34l15 467q-85 142 -359 142zM1182 82l113 31l60 -56l-117 -3zM1226 -129l167 3l9 13l-170 28zM1320 391 l158 9l-129 -161zM1506 419l82 466q13 -53 19 -100q3 -31 3 -63q0 -155 -66 -309z" />
<glyph unicode="T" horiz-adv-x="1484" d="M-22 1531l38 523l1364 133l98 -530q-362 -16 -520 -28q-11 -140 -11 -298q0 -249 27 -546l-183 -7l-192 589l56 -267q-19 -6 -220 -92l-3 574q-47 -3 -208 -26q-148 -19 -246 -25zM413 365v353l138 -274zM438 838v123l230 98l98 -391l-211 -54zM451 35l3 148l56 -60z M451 265v31l157 92l66 -130l-145 -72zM473 -208l110 76l25 -73zM514 0l34 54l41 -38zM570 167l129 63l60 -120l-107 -22zM573 573l202 54l51 -183l-155 -60zM681 -9l28 66l22 -19l3 -76h-12zM712 321l142 54l53 -211l-100 -29zM816 -164l66 -3l-16 -104zM822 19l136 72 l19 -53l-139 -44zM835 728l173 9l16 -157l-139 -35zM863 482l129 28l16 -122l-116 -23zM917 312l107 16l19 -186l-79 -16z" />
<glyph unicode="U" horiz-adv-x="1616" d="M-3 731l12 98l183 1254l570 -48l-91 -482l-91 -482q0 -35 -22 -151q-19 -120 -19 -186v-16q-35 -3 -63 -6l-117 -13q-79 -9 -113 -15l-95 321l29 -249q-63 -6 -183 -25zM0 671l9 -205q22 -60 51 -123l189 67l-60 289q-50 -9 -189 -28zM79 287q32 9 88 31q60 19 88 29 l32 -155q19 -104 28 -154q-104 38 -173 110q-44 95 -63 139zM277 633q13 -60 41 -201q28 -129 41 -202l227 57q22 76 63 242q-66 38 -82 136q-145 -19 -290 -32zM350 170l25 -101l151 29l32 123zM381 -3l129 22l-9 -38zM454 -262l15 -110l158 73l9 53zM476 -120l94 19 l-85 19zM583 -25l38 151l154 -28l-85 -130l-54 -3zM583 -158l41 -25l12 -3v76l-25 22zM614 186l70 280l66 -6q145 0 227 95q50 60 69 148l47 -22l29 -16q-3 0 -38 -57q-44 -63 -129 -195q-85 -129 -129 -196l-41 -59zM769 -101l110 164l145 -123zM870 -208l50 -107l13 101z M876 195l170 -145l173 126l-214 218zM939 2105l564 -35l53 -684l51 -683q2 -29 2 -57q0 -96 -24 -177q-44 -32 -82 -59l-378 185l274 451l-233 -302q-41 16 -98 44v34zM1033 429l76 119l353 -183l-180 -132zM1081 0q161 117 457 337q-98 -182 -199 -242q-66 -41 -258 -95z M1084 -151l16 -25l132 37l9 4l-22 56z" />
<glyph unicode="V" horiz-adv-x="1465" d="M-19 2007l589 113q35 -425 120 -1244q-3 16 -13 31l-28 60l28 -249l-280 -41l-148 275l186 -489l-177 -88q-79 668 -277 1632zM280 189l13 -132l47 47zM280 309l177 94l101 -233l-123 -79zM302 -66l70 69l50 -69l-116 -16zM416 640l139 -319l185 67l-59 293zM463 6 l114 73l31 -73l-132 -19zM463 -148l25 -35l70 3l-32 73zM605 211l85 -192l136 16l-48 239zM614 -195l41 -76l54 3l31 19l-18 104zM699 844q99 800 127 1210l620 -50q-180 -627 -327 -1314l-145 -16l-117 -12q-79 -9 -117 -13l-12 63q-9 47 -16 66zM762 573l363 41l-82 -393 l-199 -48zM851 35l182 47l-12 -73l-158 -22zM860 -66l19 16l32 -45l-45 -3z" />
<glyph unicode="W" horiz-adv-x="2070" d="M-41 1919l551 110l171 -942l110 1005l450 35l111 -901l-76 -287l-79 -303l-160 -15l-35 283l-41 -293l-192 -22l-92 318q19 -202 26 -245l-278 -41l-214 419l252 -637l-135 -63q-117 772 -369 1579zM356 16l6 -51l70 3l-51 73zM365 265l142 72l101 -230l-123 -79 l-110 152zM441 580l139 -315l186 66l-57 290zM460 -69l107 69l28 -63zM599 224l176 63l47 -243l-138 -9zM737 -161l29 -41l75 7l-34 78zM775 548l82 -400l41 10l57 409zM879 32l47 12l-15 -116h-10zM1043 577l142 15l-95 -368zM1081 -504l44 -28h16l-4 81l-25 19zM1125 117 l173 -29l218 331l-303 50zM1128 50l154 -28l-25 -38l-126 -28zM1197 -268l22 -116l82 3l3 132zM1219 514l347 9l69 110l-343 167zM1301 838l16 63l224 1204l535 -111q-170 -523 -286 -1134l-130 -195zM1355 -117l44 70l57 -48zM1408 104l208 315l123 -60l-41 -296l-198 -38z M1478 -217l170 3l6 9l-167 29zM1619 517l152 233l-48 -287z" />
<glyph unicode="X" horiz-adv-x="1521" d="M-69 41l387 -22l44 69l-28 22l-306 196zM22 1913l485 267l123 -264q57 -129 120 -274l110 242q60 126 110 236l602 -40l-557 -993q180 -350 349 -643l-252 -3l-38 413l-22 -249l-255 -10l-192 590l57 -265l-290 -123l-25 44q63 117 122 233zM110 -72l79 -7l-31 51z M110 429l221 384l66 -177l-258 -236zM164 343l249 227l148 -299l-32 -54l-145 -85zM262 -151l18 -25l139 44l-22 53zM362 -22l48 -13l19 32l-26 22zM384 747l167 -328l101 25l73 126l-57 293zM425 72l29 -28l38 69zM602 347l19 -38l28 50zM810 548l53 -183l196 51l-7 145z M848 312l3 -13l50 -97l139 25l-7 132l-47 -12zM945 120l101 -183l22 13l-9 189zM1125 403l9 -198l158 -41l104 242zM1144 132l6 -104l107 76zM1207 -98l47 -107l16 101zM1260 -3l136 6l-25 73zM1367 167l16 38l25 -7zM1402 249l57 -19l19 16l-48 75z" />
<glyph unicode="Y" horiz-adv-x="1540" d="M-38 1916l611 261q19 -139 57 -334q38 -202 107 -400l246 700l567 -79q-255 -545 -444 -1040q-63 -167 -117 -321q-107 19 -160 31l-60 618v-271l-296 -54l-57 136l28 -303l-217 476zM221 47l56 -3l88 85l-72 114zM353 -50l50 -108l16 104zM365 331l79 -117l158 38 l-38 139zM384 41l48 44l34 -47zM400 381l114 315l66 -261zM457 180l66 -101l110 -7l-38 142zM466 983l95 -356l220 6l-12 400zM539 -38l16 -22l141 41l-22 57zM573 567l208 6l7 -189l-161 -25zM646 -164l135 3l-25 73zM665 293l53 -202l104 7l-6 217zM822 659l10 -186h79 l53 163zM873 416l3 -120h22l38 120h-63z" />
<glyph unicode="Z" horiz-adv-x="1695" d="M6 394l63 -47l-44 -48zM28 230l51 -252l249 25l53 63l-302 218zM47 498l19 -88l6 -4l186 -132l312 189l-242 347zM233 2004l1377 88q3 -132 19 -513q-117 -120 -561 -602l-38 69l7 -107l-152 -164l-104 -16l-204 400l368 391q-293 -22 -624 -66zM277 249l300 180 l163 -227l-163 -164zM331 848l242 267l221 -504l-44 -63l69 3l16 -41l-186 -94zM369 -19l145 13l-82 56zM451 -154l22 -29l53 3l-25 57zM602 -85l220 13l-85 119zM681 362l157 -217l120 76l-101 233zM797 715l22 -50l54 63zM835 66l113 73l60 -139l-116 -6zM857 586l239 13 l29 -130l-189 -66zM879 -158l13 -50l28 6l13 57zM958 362l116 -267l120 3l-63 324zM1040 -239l31 -41l76 6l-35 79zM1081 -35l258 73l-6 -60zM1150 602l366 19l-76 -281l-227 -56zM1216 189l22 -98l151 26l32 122zM1399 -16l35 129l97 -15l7 -85l-16 -26zM1468 221l63 242 l22 -255z" />
<glyph unicode="[" horiz-adv-x="872" d="M77.5 1312.5q-1.5 247.5 1.5 502.5q3 252 12 495l-3 40q135 47 384.5 104t323.5 68t149 18l73 -423q-151 -16 -306 -41q-66 -13 -135 -28q-3 -284 -4 -564q3 -227 5 -474.5t9.5 -509t14.5 -522.5q3 -38 0 -73q13 0 25 4q76 13 148 22q154 25 296 60l111 -420 q-665 -132 -1043 -129q-22 451 -41 949q-6 205 -12.5 439.5t-8 482z" />
<glyph unicode="\" d="M-22 2215l293 340q192 -410 403 -832q98 -176 199 -374.5t209.5 -405t222 -414.5t220.5 -403l-356 -202q-202 353 -410 744q-91 161 -190.5 350t-198.5 387.5t-200 404.5t-192 405z" />
<glyph unicode="]" horiz-adv-x="532" d="M-148 -47q151 6 312 25q63 13 132 25q25 262 35 539q13 214 22 450.5t17 483.5t11 506v85q-3 0 -3 3h-151q-161 0 -306 -6l-19 406q69 6 149.5 8t153 0.5t146.5 -5t134 -6.5q154 -13 300 -31q66 -577 72 -864q-3 -198 -11 -422t-17.5 -460t-21.5 -479q-16 -233 -32 -444 v-69q-142 -41 -290 -70q-47 -13 -277 -47.5t-299 -37.5z" />
<glyph unicode="^" horiz-adv-x="2076" d="M-3 2158l646 76l-111 -1535q-437 10 -434 -25q3 32 -14.5 391t-86.5 1093zM19 189q-13 54 3 113q9 60 44 104.5t85.5 72.5t112 44t117.5 9q60 -22 110.5 -55t80.5 -75.5t42.5 -99t-3.5 -113.5q-13 -54 -46 -104t-83 -80t-110 -44.5t-123 1.5q-57 13 -107.5 43t-80 80 t-42.5 104zM589.5 217.5q-12.5 53.5 2.5 116.5q9 57 44 99.5t85.5 75.5t109 45.5t117.5 6.5q63 -16 110.5 -52t80.5 -78.5t44 -99.5t-1 -114q-13 -54 -49.5 -104t-83.5 -80t-108.5 -44t-121.5 2q-57 13 -107 42.5t-80 80t-42.5 104zM716.5 718q-20.5 -22 9.5 484t49 1111 l756 88l-381 -1702q-413 41 -433.5 19zM1143.5 192.5q-12.5 53.5 0.5 113.5t47.5 104t81.5 72t108.5 44t118.5 10q69 -19 116.5 -52t75.5 -77.5t42.5 -101t-4.5 -113.5q-13 -54 -46 -104t-80.5 -80t-108.5 -43t-121 0t-109 43t-79 80.5t-42.5 104zM1323 703q3 -6 91.5 509 t116.5 908l687 -85l-495 -1433q-403 101 -400 101z" />
<glyph unicode="_" horiz-adv-x="1402" d="M-28 6l1449 7l-22 -281q-791 13 -1377 -9z" />
<glyph unicode="`" horiz-adv-x="592" d="M-76 2124l426 107l195 -615l-318 -88z" />
<glyph unicode="a" horiz-adv-x="1502" d="M-41 50l63 -12l-47 63zM-35 217l48 -56l204 110l-91 265l-72 -16zM32 95l192 103l53 -157zM32 542l53 16l-25 88zM91 725q170 646 271 1282l725 104q85 -561 265 -1241q-186 -306 -183 -300l-10 -15l-195 34q-41 6 -116 22q-79 13 -114 19q3 104 3 117l111 3l-130 743 l-119 -746h97l-3 -29l-280 38l-60 265l35 -482q-170 -28 -205 -38q-57 142 -92 224zM173 -91l107 41l4 15l-60 -3zM198 460l196 38l31 -252l-138 -38zM306 107l37 -104l111 29l-19 110zM318 -123l13 -50l28 6l13 54zM410 -57l141 -31l-9 50zM419 715l41 -343l199 9l28 296z M438 -214l19 -22l44 3l-22 44zM488 325l35 -268l54 274zM712 384l208 26l41 -183l176 290l-406 69zM936 79l75 123l38 -180l-85 -19l-12 6zM1037 243l69 -183l94 19l89 75l-211 155zM1056 -72l119 3l-31 66zM1131 416l161 271l151 -142l54 -183l-180 -151zM1175 -161l41 -34 l3 31zM1254 -41l41 -25l13 -3l-4 75l-22 22zM1308 88l217 47l-19 63l-31 32zM1317 718l22 -22l82 -75l-57 205zM1326 -183l38 -3l-22 51zM1393 16l126 -38l9 44z" />
<glyph unicode="b" horiz-adv-x="1556" d="M60 2010q233 107 523 110q309 0 504 -116q211 -126 227 -334q1 -14 1 -28q0 -218 -237 -420q299 -38 422 -299q9 -22 16 -44l-114 -290l-413 -9l-34 331l-19 -60q-35 41 -79 56q-66 25 -140 25q-57 0 -118 -15q-47 57 -60 75q13 -66 28 -447l82 -3q19 -69 28 -107 l-189 -73l-267 473l179 -406l-274 -130q0 381 -22 864q-38 785 -44 847zM132 214l293 151l38 -72l-208 -202zM142 -13l132 -25l-123 145zM293 38l192 214l85 -170l-91 -73l-167 10zM365 -101l89 19l-13 19zM492 1701l28 -356q236 47 293 161q31 60 31 104q0 96 -148 113 q-20 2 -42 2q-74 0 -162 -24zM507 -19l180 22l-16 60zM510 325l120 -234l123 60l-63 243zM636 -170v-54l51 13zM699 545q63 3 111 19q66 19 107 54h19l19 -293l-186 -45zM766 28l6 -132l31 25zM775 183l35 -139l145 35l25 179zM851 -132l94 -95l25 167l-25 -16zM851 -347 v-50l25 -3l13 16zM983 0l63 16l-41 179zM999 514l9 -186l303 -13l78 195zM1059 258q6 -104 9 -167q154 53 277 148l13 32zM1399 312q22 25 41 50q91 126 98 265v19l-41 22q-44 -154 -98 -356zM1512 725l41 -32l-12 117z" />
<glyph unicode="c" horiz-adv-x="1345" d="M-3 1106q6 280 113 526q107 252 290 384q161 119 346 120q40 0 80 -6q258 -35 523 -284l-142 -189l-142 -186q-143 94 -255 94q-98 0 -174 -72q-132 -126 -132 -383v-26q6 -274 148 -403q19 -16 38 -29l-16 -189l-255 -9l-192 589l57 -265l-224 -94q-63 196 -63 403v19z M41 636l221 92q63 -265 100 -388l-135 -34q-82 101 -142 226q-25 50 -44 104zM325 236l113 29l38 -158q-79 54 -151 129zM451 388l242 12l6 -145l-195 -47zM495 180l186 44l6 -133l-120 -19l-50 23zM526 -63l110 76l26 -73zM595 -192l136 75l22 -56l-142 -41zM703 646 q55 -30 118 -30q115 0 253 102l85 -110q-50 -101 -116 -255l-22 -47l-290 -4q-19 262 -28 344zM747 221h268l-86 -202l-37 -6l-66 -10l-70 16zM816 -249l19 44l101 -104l-63 -66zM958 -148l28 69l22 -22l-9 -72zM1018 -13l66 48l12 -44zM1033 107l133 416l176 -154 q-110 -176 -246 -274z" />
<glyph unicode="d" horiz-adv-x="1581" d="M60 2054q291 62 524 62q65 0 125 -5q309 -28 498 -173q268 -208 324 -479q14 -79 15 -158q0 -25 -2 -50q-9 -151 -57 -290l-57 -129q-113 -217 -334 -388q-60 -47 -126 -88l-34 -3l-38 413l-22 -249l-255 -10l-196 621l63 -296l-293 -123l-69 126l95 -287l-149 -135 l-3 1323q-6 284 -9 318zM79 132l97 -94l-88 -3zM95 195l97 -94l133 12l104 57l-167 328l-167 -155v-148zM161 -126v-54l50 10zM221 -54l129 29l-120 25zM230 662l170 -325l211 51l-97 390zM284 -135l28 6l-10 16zM384 -173l38 -25h13v75l-25 19zM410 271l201 50l44 -154 l-167 -47zM520 -101l135 3l-25 73zM573 6l145 32l-82 50zM605 703q406 164 406 505q0 41 -6 84q-36 278 -343 278q-20 0 -41 -1q-24 -331 -24 -590q0 -150 8 -276zM652 432l51 -183l195 50l-6 145zM728 195l224 54l-215 -91z" />
<glyph unicode="e" horiz-adv-x="1342" d="M57 2001l554 66l555 66l34 -255l35 -252q-167 -13 -318 -29q-151 -13 -290 -31l-16 -136q-6 -66 -6 -135l233 38l230 38l22 -196l22 -192q-224 -35 -293 -44l-154 44l-3 -31v-41l-54 -10l-6 -258l53 9l-6 -195l-170 -16l-104 397l44 -318q-88 -13 -293 -51q-16 32 -50 95 l-7 454zM104 -139v-85l205 44l-63 117zM110 331l129 -246l-126 -66zM145 391l148 -278l180 82l-44 249zM343 25l16 -31l161 31l-13 76zM488 403l41 -236l117 22l3 230zM573 -60l142 -50l32 97l-57 10l-79 12zM693 268l161 -6l57 264l-212 57zM693 652l221 -63l22 104l-25 -6 zM715 -296v-54l51 13zM718 69l54 10l79 12l19 76l-152 9v-107zM731 895l6 -69l114 47zM851 -318l53 12l-15 26zM898 123l60 287l318 -101l-110 -155zM923 -198l145 6l-28 79zM936 507l179 -56l148 -48l-9 76l-32 255l-248 -38l-13 -69zM1144 -91l94 6l-16 110z" />
<glyph unicode="f" horiz-adv-x="1288" d="M25 2001l1141 129l72 -507q-343 -19 -643 -67l-9 -293l586 104l57 -381q-356 -54 -643 -107l6 -384l-230 -10l-195 621l60 -296l-183 -79zM47 687l192 79l101 -388l-214 -53l-76 148zM91 331l98 -196l-94 -53zM104 -3v22l113 66l29 -57zM158 274l201 54l51 -183l-155 -60 zM255 -145l44 54l3 -63zM337 19l92 -16l-7 -47l-82 6zM378 -205l63 -6l-12 -101zM381 419l218 10l9 -149l-176 -44zM432 176l138 32l29 9l9 -100l-151 -35zM510 -110l108 75l25 -72l-88 -6z" />
<glyph unicode="g" horiz-adv-x="1805" d="M3 898q-1 19 -1 38q0 84 11 173q19 186 88 359q66 170 183 328q145 189 321 284q171 94 380 94h4q183 0 328 -82q148 -79 258 -239l-154 -164l-154 -161q-110 128 -245 128q-51 0 -105 -18q-180 -60 -315 -280q-117 -195 -117 -405q0 -61 10 -124q22 -145 110 -224 q57 -54 142 -73l-174 -154l-434 372l151 -161q-66 -54 -170 -138q-19 37 -35 72q-38 88 -60 186q-19 88 -22 189zM154 378q16 -28 32 -57q69 -91 148 -157l145 211q-95 95 -151 145q-69 -60 -174 -142zM410 148q35 -22 69 -41q66 -35 139 -53l59 176l-157 158zM621 356 l198 176h76l138 -280l-192 -107zM677 0q82 -19 174 -19h12q19 22 32 32l-25 25q-60 57 -145 138zM703 -318v-54l53 13zM775 -129l101 -22l-60 63zM807 822q9 -16 15 -25l16 6l274 117l-22 91l-41 205l117 -356q69 13 126 22q-25 -91 -82 -167l38 -120l255 10l22 249l35 -366 q25 35 50 76q50 85 88 176q35 95 60 196q25 113 25 214q0 104 -22 192l-466 -75l-469 -79l-10 -202zM810 -340l47 12l-16 22zM876 759l249 101l12 -47zM920 72l180 101l50 -101l-186 -44zM933 -176l15 34h142zM933 -422l41 -25h12l-3 75l-22 19zM948 555q111 19 196 91 q16 13 28 28q28 -101 50 -186q-198 -50 -211 -53q-22 44 -63 120zM1030 378l101 -192l151 63l-47 180zM1109 -290l60 -94l16 167l-19 -16zM1207 47l34 -47l130 113l-38 35zM1245 526l242 16v-148l-189 -47zM1323 299l130 32l-111 -101z" />
<glyph unicode="h" horiz-adv-x="1547" d="M44 630l199 -252l-196 -120zM60 2004l611 88q-57 -536 -66 -914l271 44l-3 782l611 88q-67 -673 -67 -1224q0 -72 1 -143l-293 53v331l-44 -243l-278 38l-63 265l29 -375l-174 -28l7 -111q-13 -3 -32 -6q-41 110 -173 422l88 -343l-353 -92l-66 82zM63 60l6 -73l22 51z M104 148l151 -98l227 48l-154 201l-224 -138v-13zM154 -47l32 -51l47 22l-53 35zM186 595l227 -286l205 110l-95 265zM378 -76l164 139l66 -98zM457 255l192 104l10 -25l15 -164l-126 -28zM668 47l35 -104l-7 111zM807 863l9 -60l60 10l3 -293l170 9l25 297zM826 -66l15 -22 l142 41l-22 56zM851 296l22 -192l107 19l35 353l-164 -10v-170zM854 -217l41 -29l12 76l-25 19zM992 -243l51 -107l13 101zM1065 145l154 -19l63 110l-211 10zM1084 -32l85 16l-82 13zM1109 302l233 -12l111 176l-7 189l-299 54zM1282 72l104 23l-69 31zM1367 167l89 151 l15 -205z" />
<glyph unicode="i" horiz-adv-x="759" d="M95 643v126l31 -95zM110 851v1222l284 47l283 45q-57 -551 -66 -1028v-491l-88 -3l-198 620l63 -296zM117 810l167 -328l214 54l-101 387zM139 561l28 28l167 -324l-192 -111zM173 79l25 -22l196 47l-38 79zM211 -25l13 -22l28 -7l173 -6l-12 79zM296 425l98 -192l154 63 l-50 180zM318 -205v-53l54 12zM454 158l116 85l3 -32zM460 -202l50 13l-15 25zM488 -25l101 -19l-60 63zM514 577l75 6l10 -177l-35 -9zM608 340l25 7l3 -123z" />
<glyph unicode="j" horiz-adv-x="1241" d="M-28 95l116 283l369 -359l-155 25l-214 32zM60 457l63 151l350 -44l9 -32l-255 -236zM262 265l248 223l164 -324l-192 -110zM485 -135l16 37l82 -34zM532 555l16 122l218 92l100 -391l-214 -53zM542 1976l293 44l290 47q-54 -564 -66 -1040v-517l-174 -6l-195 621 l60 -296l-205 -89zM555 3l163 95l29 -60l-161 -38zM621 -135l94 63l51 -111l-104 -6zM681 277l201 51l51 -180l-155 -63zM781 -277l26 25l12 -47l-28 -3zM816 -132l28 66l22 -19l4 -76h-13zM863 6l73 63l31 -37zM901 435l161 9l6 -160l-116 -32zM958 180l110 25l6 -101 l-91 -19z" />
<glyph unicode="k" d="M50 425l265 -249l25 -25l-28 -60l-258 -63zM72 2023l571 91q-28 -239 -32 -381q249 205 454 400l482 -227l-567 -476l387 -699q-25 -148 -37 -199q-88 16 -293 51q-6 66 -70 384l13 -277l-218 -25l-189 419v-369q-22 41 -170 290l133 -312l-407 -208l-47 51zM113 -6v-35 l29 6zM161 463l390 199l22 -41l7 -183l-296 -91zM227 -129l41 -25l12 72l-25 19zM340 296l126 -116l126 31l-6 139zM365 -280l51 -108l13 101zM369 -101l15 -22l133 38l9 3l-22 57zM460 107l180 -85l-32 104zM778 630l142 -315l110 16l-44 321zM926 252l98 13l32 -230 l-26 -13zM1043 542l47 -312l192 16l44 249zM1106 -104l41 -25l12 -3l-3 75l-22 19zM1109 117l16 -111l157 73l10 53zM1163 -233l15 -110l158 75l9 51zM1216 -88l133 6l-26 73zM1323 142l35 217l161 -38l-41 -107zM1361 438l164 -44l13 31l-139 249zM1478 91l75 35l-37 66z " />
<glyph unicode="l" horiz-adv-x="1206" d="M57 35l145 -142l-145 -35v177zM76 1913l567 91q-69 -674 -73 -1251l-94 303l60 -297l-290 -123l-70 123l95 -283l-192 -177zM79 158l170 -164l69 15l139 79l-164 325l-214 -192v-63zM271 580l284 113l97 -387l-214 -54zM299 -126l136 3l-25 73zM460 164l202 53l50 -179 l-170 -32zM498 -262l79 16l-41 41zM498 -340v-136l53 82zM614 611l331 38l-19 -205l-255 -9zM681 -139l41 -28h12l-3 76l-22 19zM687 388l50 -183l196 50l-7 145zM725 -460l47 -107l16 101zM747 139l142 34l47 13l3 -73l-177 -25zM813 -107l16 -25l141 44l-22 56zM964 555 l205 22l47 -391l-220 -3zM986 132l227 3l6 -72l-227 -19z" />
<glyph unicode="m" horiz-adv-x="2095" d="M-41 135l88 287l63 -69l-110 -227zM50 63l221 -44l60 63l-180 186zM88 583l252 -114l73 67l-117 252l-173 -82zM98 425l116 -94l35 -25l88 107l-224 123zM129 -198v-54l54 13zM135 753q142 583 227 1251l520 104l155 -983l135 945l492 38q98 -829 371 -1743 q-123 -82 -223 -148q-28 44 -89 139q-60 91 -91 139q35 47 183 296l-328 -419l-132 668l-88 -700l-67 19l79 372l-82 -214l-198 56l3 473l-19 -157l-243 -35h-12l-66 249l-73 -457l-145 -79l-236 429l72 -174q-54 -25 -145 -69zM262 239l119 -126l161 95l3 38l-116 249z M299 -19l101 -19l-60 63zM334 -315l57 -54l15 98l-18 -9zM350 -110l164 138l66 -100zM460 532l85 -179l38 246zM731 816l44 -324l177 -7l28 363zM781 397l26 -192l132 16l9 170zM822 101l19 -158l92 7l12 163zM980 -47l110 9l19 76l-123 16zM989 359l164 -9l35 129l-189 50z M999 151l88 -9l19 75l-101 7zM1163 110l82 -56l9 3l25 205l-72 25zM1166 -117v-66l31 -6l19 19zM1374 -255l119 9l-37 60zM1487 271l110 145l174 -265l-230 -154zM1544 -164l16 -25l138 44l-19 54zM1572 -318l41 -25l13 -4v76l-25 22zM1642 -35l135 29l-25 47zM1711 -343 l47 -108l16 104zM1805 110l32 -63l274 54l-57 183l-233 -161z" />
<glyph unicode="n" horiz-adv-x="1632" d="M76 82v428l330 -321l23 -25l-167 -167zM85 2026l567 94q9 -85 47 -242q85 -375 174 -656q54 -161 110 -258v1065l567 91q-77 -740 -77 -1358q0 -109 2 -214l-290 -3l-38 413l-22 -252l-255 -10l-199 621l63 -296l-290 -123l-72 126l97 -287l-258 -233l-123 120zM88 -22 l133 -63l-10 -16l-123 -31v110zM243 438l220 -211l123 72l-9 196l-85 170zM321 -19l281 69l-104 101l-76 -72zM441 -85l158 -10l-16 -66l-132 44zM463 863l284 114l97 -388l-157 -41l-32 47l-78 127v-76zM514 205l91 53l9 -148zM529 -280l41 -29h13v76l-25 19zM681 76 l41 -29h12v76l-25 19zM712 488l142 35l50 -180l-75 -31zM882 649l51 -180l198 48l-6 148zM907 236l63 26l51 -190l-44 60zM967 413l32 -117l160 29l-6 132l-44 -13zM1049 -41l79 -60l-44 79zM1068 192l151 25l7 -167l-114 -25zM1191 476l9 -199l155 -41l104 243zM1251 -180 h44l91 7l-28 72zM1286 221l132 -35l-19 -44l-107 -25zM1301 -72l148 31l-85 50zM1415 76l129 28l-10 110l-53 16zM1462 384l25 67l6 -76z" />
<glyph unicode="o" horiz-adv-x="1644" d="M3 1062q19 369 211 671q239 372 630 372q331 0 558 -309q120 -164 170 -340q42 -162 42 -347q0 -24 -1 -47q-9 -205 -79 -391l-264 47v331l-44 -246l-136 23q19 79 22 173v15q0 190 -72 366q-76 186 -211 186q-148 0 -243 -230q-76 -180 -82 -362v-24q0 -75 16 -143 q25 -91 72 -148q-101 -25 -315 -82l-271 315q-4 55 -4 112q0 29 1 58zM6 879q13 -113 41 -217q9 -32 19 -60q50 32 88 53zM76 532l100 57l224 -299l-132 -79q-35 41 -70 85q-76 104 -122 236zM306 539l226 -287l205 113l-85 240l-25 19zM318 173q136 -132 306 -170l12 10 q-32 38 -94 119q-60 79 -91 120zM583 167l192 104l57 -173l-126 -92zM718 -126l22 -38l26 10l6 6l-38 25zM731 545q32 9 76 16q57 0 100 19l22 6q6 -57 29 -252q-72 -22 -139 -41q-57 161 -88 252zM759 -82l48 -3l97 6l-25 79zM826 -306l9 -25l88 22l-3 13zM854 198l50 -141 l101 9l-22 170zM895 -186l19 -25l142 44l9 3l-22 60zM977 621q13 -107 19 -164l204 9l19 300l-141 19q-16 -41 -35 -76q-28 -54 -66 -88zM1008 394l41 -334l117 63l28 280zM1115 -186l92 19l-88 13zM1153 -3l54 -114l15 111zM1235 79l60 53l-57 3zM1245 217l66 -3 q54 57 101 126q76 117 122 237l-255 47q-6 -60 -16 -205q-13 -129 -18 -202z" />
<glyph unicode="p" horiz-adv-x="1471" d="M44 2013q419 104 700 104q44 0 85 -3q293 -19 444 -164q161 -154 167 -447v-12q0 -226 -110 -407q-95 -158 -268 -265q-66 -44 -145 -79q-9 120 -22 212q-6 -44 -10 -117l-9 -110q-35 -13 -73 -26q-78 -11 -129 -11q-34 0 -56 5l-193 589l57 -264l-290 -123l-69 123 l94 -284l-141 -132l3 400q3 181 3 331q0 554 -38 680zM66 -170l29 66l22 -19l3 -75h-13zM69 41l10 252l97 -95l26 -28zM69 375l3 148l167 151l164 -324l-192 -111zM76 -3l88 82l66 63l98 -95l-19 -28zM202 -325l66 -3l-16 -104zM208 -142l135 73l22 -54l-141 -44zM211 857 l284 117l78 -331v-63l-192 -51zM262 205l179 101l63 -130l-142 -69zM384 -28l130 63l44 -82l-139 -16zM425 507l170 44l10 -204l-82 -32zM520 224l60 25l12 -170zM548 1642l13 -511q183 3 299 114q82 79 104 201q4 25 4 48q0 121 -114 166q-47 20 -109 20q-85 0 -197 -38z " />
<glyph unicode="q" horiz-adv-x="1777" d="M25 1052q41 372 265 687q287 384 696 385q350 0 561 -315q117 -161 158 -350q31 -138 31 -276q0 -326 -173 -647l3 -10l-10 -22l-18 -47l-290 -3q-25 306 -38 412l-10 -126q-6 -76 -12 -122l-218 -10l-132 296l-19 60l208 95l214 97q-22 154 -85 268q-82 151 -208 151 q-176 0 -318 -230q-120 -202 -135 -409l3 -114l-63 111l97 -284l-258 -236l-230 220q-9 41 -3 19q-25 114 -25 240q0 78 9 160zM79 529q60 -57 205 -198q132 -129 204 -202l26 -25l-54 -54q-151 76 -262 240q-76 110 -119 239zM315 388l249 223l164 -324l-192 -111zM520 0 l44 41l82 -79zM561 139l179 104l67 -130l-145 -72zM643 545q116 -83 205 -83q37 0 69 14q-195 -51 -211 -54q-28 54 -63 123zM715 -3l129 63l38 -69l-104 -10l-47 3zM731 372l202 50l50 -179l-154 -60zM857 101l142 57l47 -186l-104 -32zM939 -208l202 44l12 -79l-173 7 l-28 6zM958 517l44 19l-10 28l196 9l6 -144l-195 -51zM1008 337l142 35l44 12l6 -132l-160 -28zM1046 -388l54 -41l-54 -12v53zM1056 123l151 25l3 -76l-126 -66zM1153 -410l32 35l15 -22zM1216 -208l41 44l63 -63zM1248 110l132 -31l-44 -101l-82 19zM1248 381l268 3 l-104 -242l-155 41zM1304 -325l63 35l16 13l-16 -107zM1412 -95l18 48l35 -19zM1437 16l6 16l63 148l217 -70l-223 -126zM1506 252l69 164l111 -221z" />
<glyph unicode="r" d="M44 1991q504 135 848 136q463 0 535 -366q3 -32 2 -63q0 -387 -402 -642q44 -66 218 -284l-35 -183l-10 -50l-280 -70q-95 293 -129 394l35 -245q-3 -3 -130 -38l-151 223l-3 -192l-296 501l88 -192l41 -85l-243 -176l-12 -7q-16 13 -54 57q1 180 1 336q0 729 -23 946z M69 290l7 343l110 -173zM72 -50v110l130 -79zM85 145l3 88l148 211l107 -129l-185 -211zM145 621l249 173l148 -290l3 -82l-164 -82zM183 110l217 161l69 -136l-157 -91l-54 -3zM249 -95l25 29l32 -22zM290 -239l98 59l47 -107l-104 -9zM403 -101l101 101l66 -91zM422 268 l133 72l12 -230l-9 -6zM542 1245q107 47 205 119q149 120 149 205q0 8 -1 16q-13 69 -114 75h-14q-77 0 -209 -28l-10 -192zM699 529l111 32l38 -142l-54 -25zM819 347l41 25l35 -129h-3zM854 25l50 -41l-50 -12v53zM907 107l19 44l35 -16zM942 384l262 63l-48 -258l-157 3z M952 -287l69 44l35 -78l-76 -7zM955 -180l6 41l85 -22zM1024 85l135 -3l-18 -107l-70 -7l-25 38zM1059 -217l28 69l25 -19v-76h-12zM1191 110v16l31 161l186 -16l-189 -167zM1194 -132l69 66l35 -38zM1207 331l63 343l230 -283l-29 -54l-34 -28z" />
<glyph unicode="s" horiz-adv-x="1600" d="M0 970q-2 20 -2 41q0 291 327 665q365 410 693 429q12 1 24 1q294 0 379 -383q19 -98 32 -214q-73 -25 -243 -85l-240 -79q-28 132 -119 133q-126 0 -227 -117q-49 -60 -49 -118q0 -23 8 -46q25 -53 141 -53h4q66 0 167 19q120 19 217 22l32 -193q9 -54 34 -182 q22 -113 32 -180q-95 -9 -218 -22q65 42 65 88q0 5 -1 10q-16 69 -155 69q-60 0 -154 -13q-25 25 -142 215q22 -47 50 -117q25 -66 44 -107q-35 -3 -69 -9q-176 -35 -274 -35q-123 0 -198 41q-151 69 -158 220zM271 60l117 350l226 -208l-122 -211zM369 479l299 -268 q142 57 271 114q-28 50 -117 211q-35 -9 -66 -16q-54 -16 -107 -16q-88 0 -180 35l-88 -35zM551 -44l111 -10l78 7l51 79l-38 37l-113 98zM699 -202l23 -25l50 3l-22 54zM731 148l148 -132l120 56l69 38l-82 145zM791 -38l25 38l28 -25zM819 -350l44 -28h13v82l-28 19z M876 536l343 34l54 -274l-221 -79zM952 -91l9 -117l41 3v133zM1093 158l129 47l-113 -79zM1100 -28l44 69l60 -47zM1153 1119l76 -363l57 -287q41 3 192 7q6 16 19 34l15 467q-85 142 -359 142zM1182 82l113 31l60 -56l-117 -3zM1226 -129l167 3l9 13l-170 28zM1320 391 l158 9l-129 -161zM1506 419l82 466q13 -53 19 -100q3 -31 3 -63q0 -155 -66 -309z" />
<glyph unicode="t" horiz-adv-x="1484" d="M-22 1531l38 523l1364 133l98 -530q-362 -16 -520 -28q-11 -140 -11 -298q0 -249 27 -546l-183 -7l-192 589l56 -267q-19 -6 -220 -92l-3 574q-47 -3 -208 -26q-148 -19 -246 -25zM413 365v353l138 -274zM438 838v123l230 98l98 -391l-211 -54zM451 35l3 148l56 -60z M451 265v31l157 92l66 -130l-145 -72zM473 -208l110 76l25 -73zM514 0l34 54l41 -38zM570 167l129 63l60 -120l-107 -22zM573 573l202 54l51 -183l-155 -60zM681 -9l28 66l22 -19l3 -76h-12zM712 321l142 54l53 -211l-100 -29zM816 -164l66 -3l-16 -104zM822 19l136 72 l19 -53l-139 -44zM835 728l173 9l16 -157l-139 -35zM863 482l129 28l16 -122l-116 -23zM917 312l107 16l19 -186l-79 -16z" />
<glyph unicode="u" horiz-adv-x="1616" d="M-3 731l12 98l183 1254l570 -48l-91 -482l-91 -482q0 -35 -22 -151q-19 -120 -19 -186v-16q-35 -3 -63 -6l-117 -13q-79 -9 -113 -15l-95 321l29 -249q-63 -6 -183 -25zM0 671l9 -205q22 -60 51 -123l189 67l-60 289q-50 -9 -189 -28zM79 287q32 9 88 31q60 19 88 29 l32 -155q19 -104 28 -154q-104 38 -173 110q-44 95 -63 139zM277 633q13 -60 41 -201q28 -129 41 -202l227 57q22 76 63 242q-66 38 -82 136q-145 -19 -290 -32zM350 170l25 -101l151 29l32 123zM381 -3l129 22l-9 -38zM454 -262l15 -110l158 73l9 53zM476 -120l94 19 l-85 19zM583 -25l38 151l154 -28l-85 -130l-54 -3zM583 -158l41 -25l12 -3v76l-25 22zM614 186l70 280l66 -6q145 0 227 95q50 60 69 148l47 -22l29 -16q-3 0 -38 -57q-44 -63 -129 -195q-85 -129 -129 -196l-41 -59zM769 -101l110 164l145 -123zM870 -208l50 -107l13 101z M876 195l170 -145l173 126l-214 218zM939 2105l564 -35l53 -684l51 -683q2 -29 2 -57q0 -96 -24 -177q-44 -32 -82 -59l-378 185l274 451l-233 -302q-41 16 -98 44v34zM1033 429l76 119l353 -183l-180 -132zM1081 0q161 117 457 337q-98 -182 -199 -242q-66 -41 -258 -95z M1084 -151l16 -25l132 37l9 4l-22 56z" />
<glyph unicode="v" horiz-adv-x="1465" d="M-19 2007l589 113q35 -425 120 -1244q-3 16 -13 31l-28 60l28 -249l-280 -41l-148 275l186 -489l-177 -88q-79 668 -277 1632zM280 189l13 -132l47 47zM280 309l177 94l101 -233l-123 -79zM302 -66l70 69l50 -69l-116 -16zM416 640l139 -319l185 67l-59 293zM463 6 l114 73l31 -73l-132 -19zM463 -148l25 -35l70 3l-32 73zM605 211l85 -192l136 16l-48 239zM614 -195l41 -76l54 3l31 19l-18 104zM699 844q99 800 127 1210l620 -50q-180 -627 -327 -1314l-145 -16l-117 -12q-79 -9 -117 -13l-12 63q-9 47 -16 66zM762 573l363 41l-82 -393 l-199 -48zM851 35l182 47l-12 -73l-158 -22zM860 -66l19 16l32 -45l-45 -3z" />
<glyph unicode="w" horiz-adv-x="2070" d="M-41 1919l551 110l171 -942l110 1005l450 35l111 -901l-76 -287l-79 -303l-160 -15l-35 283l-41 -293l-192 -22l-92 318q19 -202 26 -245l-278 -41l-214 419l252 -637l-135 -63q-117 772 -369 1579zM356 16l6 -51l70 3l-51 73zM365 265l142 72l101 -230l-123 -79 l-110 152zM441 580l139 -315l186 66l-57 290zM460 -69l107 69l28 -63zM599 224l176 63l47 -243l-138 -9zM737 -161l29 -41l75 7l-34 78zM775 548l82 -400l41 10l57 409zM879 32l47 12l-15 -116h-10zM1043 577l142 15l-95 -368zM1081 -504l44 -28h16l-4 81l-25 19zM1125 117 l173 -29l218 331l-303 50zM1128 50l154 -28l-25 -38l-126 -28zM1197 -268l22 -116l82 3l3 132zM1219 514l347 9l69 110l-343 167zM1301 838l16 63l224 1204l535 -111q-170 -523 -286 -1134l-130 -195zM1355 -117l44 70l57 -48zM1408 104l208 315l123 -60l-41 -296l-198 -38z M1478 -217l170 3l6 9l-167 29zM1619 517l152 233l-48 -287z" />
<glyph unicode="x" horiz-adv-x="1521" d="M-69 41l387 -22l44 69l-28 22l-306 196zM22 1913l485 267l123 -264q57 -129 120 -274l110 242q60 126 110 236l602 -40l-557 -993q180 -350 349 -643l-252 -3l-38 413l-22 -249l-255 -10l-192 590l57 -265l-290 -123l-25 44q63 117 122 233zM110 -72l79 -7l-31 51z M110 429l221 384l66 -177l-258 -236zM164 343l249 227l148 -299l-32 -54l-145 -85zM262 -151l18 -25l139 44l-22 53zM362 -22l48 -13l19 32l-26 22zM384 747l167 -328l101 25l73 126l-57 293zM425 72l29 -28l38 69zM602 347l19 -38l28 50zM810 548l53 -183l196 51l-7 145z M848 312l3 -13l50 -97l139 25l-7 132l-47 -12zM945 120l101 -183l22 13l-9 189zM1125 403l9 -198l158 -41l104 242zM1144 132l6 -104l107 76zM1207 -98l47 -107l16 101zM1260 -3l136 6l-25 73zM1367 167l16 38l25 -7zM1402 249l57 -19l19 16l-48 75z" />
<glyph unicode="y" horiz-adv-x="1540" d="M-38 1916l611 261q19 -139 57 -334q38 -202 107 -400l246 700l567 -79q-255 -545 -444 -1040q-63 -167 -117 -321q-107 19 -160 31l-60 618v-271l-296 -54l-57 136l28 -303l-217 476zM221 47l56 -3l88 85l-72 114zM353 -50l50 -108l16 104zM365 331l79 -117l158 38 l-38 139zM384 41l48 44l34 -47zM400 381l114 315l66 -261zM457 180l66 -101l110 -7l-38 142zM466 983l95 -356l220 6l-12 400zM539 -38l16 -22l141 41l-22 57zM573 567l208 6l7 -189l-161 -25zM646 -164l135 3l-25 73zM665 293l53 -202l104 7l-6 217zM822 659l10 -186h79 l53 163zM873 416l3 -120h22l38 120h-63z" />
<glyph unicode="z" horiz-adv-x="1695" d="M6 394l63 -47l-44 -48zM28 230l51 -252l249 25l53 63l-302 218zM47 498l19 -88l6 -4l186 -132l312 189l-242 347zM233 2004l1377 88q3 -132 19 -513q-117 -120 -561 -602l-38 69l7 -107l-152 -164l-104 -16l-204 400l368 391q-293 -22 -624 -66zM277 249l300 180 l163 -227l-163 -164zM331 848l242 267l221 -504l-44 -63l69 3l16 -41l-186 -94zM369 -19l145 13l-82 56zM451 -154l22 -29l53 3l-25 57zM602 -85l220 13l-85 119zM681 362l157 -217l120 76l-101 233zM797 715l22 -50l54 63zM835 66l113 73l60 -139l-116 -6zM857 586l239 13 l29 -130l-189 -66zM879 -158l13 -50l28 6l13 57zM958 362l116 -267l120 3l-63 324zM1040 -239l31 -41l76 6l-35 79zM1081 -35l258 73l-6 -60zM1150 602l366 19l-76 -281l-227 -56zM1216 189l22 -98l151 26l32 122zM1399 -16l35 129l97 -15l7 -85l-16 -26zM1468 221l63 242 l22 -255z" />
<glyph unicode="{" horiz-adv-x="1603" d="M69 1270q183 -16 372 -19q88 0 176.5 -1.5t183 0t190.5 6t191 17.5l-7 -391q-170 -13 -349 -19q-72 -3 -159 -4.5t-178.5 -1.5t-184.5 4.5t-178 11.5zM350 1739l138 359q139 -47 287 -104q57 -28 128 -59.5t140 -66t141.5 -74t138.5 -80.5l-88 -388q-142 88 -293 161 q-69 32 -137 66.5t-146.5 67.5t-157.5 63t-151 55zM406 331q158 60 309 132q69 32 143.5 71t148.5 77t152.5 85.5t144.5 91.5l158 -350q-132 -76 -271 -158q-57 -32 -126 -68t-143 -73.5t-153 -69t-151 -63.5z" />
<glyph unicode="}" horiz-adv-x="1603" d="M69 1667q132 82 278 160q57 32 126 66.5t140 74t148 71t153 59.5l208 -315q-148 -69 -306 -138q-63 -32 -138.5 -71.5t-151 -77t-153 -81.5t-146.5 -95zM208 394l88 387q145 -85 299 -160q60 -28 132.5 -61.5t151.5 -69.5t154.5 -66t154.5 -55l-142 -363 q-142 50 -280 114q-66 25 -132.5 55t-139 63t-146.5 74t-140 82zM378 901l10 391q164 13 340 19q82 3 167 4.5t174.5 1.5t182.5 -4.5t182 -14.5l50 -394q-186 16 -375 22q-79 0 -170 1.5t-187.5 0t-192.5 -7.5t-181 -19z" />
<glyph unicode="~" horiz-adv-x="1559" d="M-41 2095q403 54 677 3q369 -69 401 -352q41 -359 -262 -653q-78 -69 -198 -148l15 -268l-378 -56l-113 516q460 224 452 435t-562 66zM144.5 187.5q-9.5 55.5 6.5 108.5q16 63 52 109t88 74t110.5 44t124.5 6q54 -19 101 -52t78.5 -77t41 -99t-6.5 -112 q-19 -57 -56.5 -107t-86.5 -80t-110.5 -44.5t-121.5 1.5q-63 13 -108.5 43t-74 80t-38 105.5zM847.5 187.5q-12.5 55.5 3.5 108.5q9 63 45.5 109t86.5 74t110 44t120 6q60 -19 109 -52t80.5 -77t42.5 -99t-2 -112t-47.5 -107t-83.5 -80t-110 -44.5t-121 1.5q-57 13 -109 43 t-82 80t-42.5 105.5zM992 696q3 -6 8 58.5t11.5 168.5t16 233.5t15.5 267.5q22 325 44 744l570 -85l-293 -1443q-107 22 -186 31q-41 6 -72.5 11t-59.5 9.5t-34 4.5h-20z" />
<glyph unicode="&#xad;" horiz-adv-x="916" d="M88 1213l738 9l-10 -469q-400 22 -699 -16z" />
<glyph unicode="&#x2000;" horiz-adv-x="1410" />
<glyph unicode="&#x2001;" horiz-adv-x="2820" />
<glyph unicode="&#x2002;" horiz-adv-x="1410" />
<glyph unicode="&#x2003;" horiz-adv-x="2820" />
<glyph unicode="&#x2004;" horiz-adv-x="940" />
<glyph unicode="&#x2005;" horiz-adv-x="705" />
<glyph unicode="&#x2006;" horiz-adv-x="470" />
<glyph unicode="&#x2007;" horiz-adv-x="470" />
<glyph unicode="&#x2008;" horiz-adv-x="352" />
<glyph unicode="&#x2009;" horiz-adv-x="564" />
<glyph unicode="&#x200a;" horiz-adv-x="156" />
<glyph unicode="&#x2010;" horiz-adv-x="916" d="M88 1213l738 9l-10 -469q-400 22 -699 -16z" />
<glyph unicode="&#x2011;" horiz-adv-x="916" d="M88 1213l738 9l-10 -469q-400 22 -699 -16z" />
<glyph unicode="&#x2012;" horiz-adv-x="916" d="M88 1213l738 9l-10 -469q-400 22 -699 -16z" />
<glyph unicode="&#x2013;" horiz-adv-x="1789" d="M0 945v476h1790v-476h-1790z" />
<glyph unicode="&#x2014;" horiz-adv-x="3572" d="M463 945v476h2647v-476h-2647z" />
<glyph unicode="&#x2018;" horiz-adv-x="860" d="M148 1610l337 1153l646 57q-227 -608 -312 -1109z" />
<glyph unicode="&#x2019;" horiz-adv-x="860" d="M148 1610l337 1153l646 57q-227 -608 -312 -1109z" />
<glyph unicode="&#x201a;" horiz-adv-x="1080" d="M91 -514l360 1094h541l-541 -1094h-360z" />
<glyph unicode="&#x201c;" horiz-adv-x="1046" d="M25 1957l340 242q101 -463 262 -769l-284 -248zM492 2143l368 201q60 -469 189 -778l-305 -217z" />
<glyph unicode="&#x201d;" horiz-adv-x="998" d="M-25 1597q135 302 205 757l352 -199l-261 -769zM388 1462q158 293 264 747l331 -252l-328 -744z" />
<glyph unicode="&#x201e;" horiz-adv-x="1754" d="M91 -514l360 1094h538l-538 -1094h-360zM772 -514l350 1094h542l-542 -1094h-350z" />
<glyph unicode="&#x2022;" horiz-adv-x="1499" d="M72 1326q0 142 54 263.5t145 213t214 145t265 53.5q135 0 259.5 -53.5t214.5 -145t145 -213t55 -263.5q0 -135 -55 -259.5t-145 -216t-214.5 -146.5t-259.5 -55q-142 0 -265 55t-214 146.5t-145 216t-54 259.5z" />
<glyph unicode="&#x2026;" horiz-adv-x="2435" d="M120 293q0 72 26.5 133.5t69 109t107.5 74t134 26.5q76 0 135.5 -26.5t107 -74t72.5 -109t25 -133.5q0 -69 -25 -130.5t-72.5 -107.5t-107 -71t-135.5 -25q-69 0 -134 25t-107.5 71t-69 107.5t-26.5 130.5zM882 293q0 72 27 133.5t72.5 109t108.5 74t132 26.5t134 -26.5 t107.5 -74t72.5 -109t30 -133.5q0 -69 -30 -130.5t-72.5 -107.5t-107.5 -71t-134 -25t-132 25t-108.5 71t-72.5 107.5t-27 130.5zM1657 293q0 72 27 133.5t72.5 109t107 74t137.5 26.5q69 0 132 -26.5t107 -74t69.5 -109t25.5 -133.5q0 -69 -25.5 -130.5t-69.5 -107.5 t-107 -71t-132 -25q-76 0 -137.5 25t-107 71t-72.5 107.5t-27 130.5z" />
<glyph unicode="&#x202f;" horiz-adv-x="564" />
<glyph unicode="&#x2039;" horiz-adv-x="929" d="M91 1188l470 828l271 -154l-369 -674l369 -700l-271 -135z" />
<glyph unicode="&#x203a;" horiz-adv-x="929" d="M95 488l368 700l-368 674l277 154l463 -828l-463 -835z" />
<glyph unicode="&#x205f;" horiz-adv-x="705" />
<glyph unicode="&#x20ac;" horiz-adv-x="1751" d="M88 1011l32 237h154q-3 28 -3 56v67v59h-183l32 237h176q50 205 149.5 397t246 335.5t338.5 230t423 86.5q69 0 129 -6.5t135 -25.5l-50 -469q-82 16 -161 16q-135 0 -248.5 -46t-197 -120t-142 -178t-89.5 -220h778l-28 -237h-788v-56v-66q0 -28 6 -60h759l-31 -237 h-677q35 -113 94.5 -212.5t143 -175t189 -121t228.5 -45.5q82 0 164 19v-479q-88 -25 -196 -25q-233 0 -426.5 83.5t-341.5 225t-246 330.5t-145 400h-224z" />
<glyph unicode="&#x25fc;" horiz-adv-x="2174" d="M0 0v2174h2174v-2174h-2174z" />
</font>
</defs>
</svg>
